{"glyphs":{"0":{"ha":833,"x_min":44,"x_max":789,"o":"m 417 -17 q 220 44 304 -17 q 90 219 136 106 q 44 486 44 332 q 90 754 44 642 q 220 928 136 867 q 417 989 304 989 q 614 928 531 989 q 743 754 697 867 q 789 486 789 642 q 743 219 789 332 q 614 44 697 106 q 417 -17 531 -17 m 194 486 q 208 344 194 408 q 247 233 222 281 l 490 835 q 417 851 456 851 q 257 753 319 851 q 194 486 194 656 m 417 119 q 532 164 482 119 q 610 291 582 208 q 639 486 639 374 q 625 628 639 564 q 586 738 611 692 l 343 136 q 417 119 378 119 z "},"1":{"ha":833,"x_min":92,"x_max":738,"o":"m 92 0 l 92 132 l 332 132 l 332 799 l 103 757 l 103 876 l 389 972 l 479 972 l 479 132 l 738 132 l 738 0 l 92 0 z "},"2":{"ha":833,"x_min":97,"x_max":754,"o":"m 97 0 l 97 117 q 348 326 240 231 q 517 511 456 422 q 578 692 578 600 q 535 812 578 768 q 418 856 492 856 q 288 802 333 856 q 242 675 242 749 l 99 675 q 142 847 100 778 q 255 953 183 917 q 418 989 326 989 q 647 909 567 989 q 728 696 728 829 q 691 533 728 611 q 594 383 654 454 q 462 249 535 313 q 315 126 389 185 l 754 126 l 754 0 l 97 0 z "},"3":{"ha":833,"x_min":76,"x_max":763,"o":"m 424 -17 q 250 19 328 -17 q 126 126 172 56 q 76 296 81 196 l 224 296 q 280 169 228 219 q 424 119 332 119 q 565 164 514 119 q 617 286 617 208 q 554 413 617 372 q 401 453 492 453 l 315 453 l 315 583 l 389 583 q 524 617 471 583 q 576 721 576 650 q 536 817 576 782 q 422 853 496 853 q 303 813 347 853 q 253 710 258 772 l 107 710 q 151 856 111 793 q 261 953 192 918 q 422 989 331 989 q 589 955 522 989 q 689 864 656 921 q 722 736 722 807 q 680 612 722 664 q 578 536 638 560 l 578 528 q 710 445 658 506 q 763 283 763 385 q 723 133 763 201 q 608 24 683 64 q 424 -17 532 -17 z "},"4":{"ha":833,"x_min":63,"x_max":797,"o":"m 524 0 l 524 210 l 63 210 l 63 325 l 497 972 l 671 972 l 671 343 l 797 343 l 797 210 l 671 210 l 671 0 l 524 0 m 226 343 l 532 343 l 532 807 l 226 343 z "},"5":{"ha":833,"x_min":72,"x_max":761,"o":"m 415 -17 q 239 21 314 -17 q 122 124 164 58 q 72 271 79 189 l 222 271 q 287 161 236 203 q 417 119 338 119 q 564 178 510 119 q 618 331 618 238 q 563 483 618 429 q 421 538 507 538 q 303 506 351 538 q 226 425 254 474 l 85 425 l 168 972 l 697 972 l 697 836 l 282 836 l 235 588 l 244 588 q 323 643 274 621 q 440 665 372 665 q 612 622 540 665 q 722 503 683 579 q 761 332 761 428 q 719 156 761 235 q 599 30 676 76 q 415 -17 521 -17 z "},"6":{"ha":833,"x_min":64,"x_max":761,"o":"m 436 -17 q 263 22 333 -17 q 148 125 192 60 q 84 274 104 190 q 64 451 64 358 q 109 733 64 613 q 239 922 154 854 q 443 989 324 989 q 609 953 542 989 q 715 856 676 918 q 761 715 753 794 l 624 715 q 561 818 610 781 q 442 856 513 856 q 281 767 349 856 q 204 492 213 679 l 213 492 q 305 585 242 544 q 456 625 368 625 q 610 585 540 625 q 720 475 679 546 q 761 311 761 404 q 722 149 761 224 q 609 28 682 74 q 436 -17 536 -17 m 426 117 q 563 169 511 117 q 615 304 615 222 q 563 440 615 386 q 426 493 511 493 q 288 440 342 493 q 235 306 235 388 q 288 171 235 225 q 426 117 342 117 z "},"7":{"ha":833,"x_min":82,"x_max":742,"o":"m 222 0 l 590 839 l 82 839 l 82 972 l 742 972 l 742 858 l 376 0 l 222 0 z "},"8":{"ha":833,"x_min":79,"x_max":754,"o":"m 417 -17 q 241 21 317 -17 q 122 124 165 58 q 79 274 79 189 q 127 426 79 364 q 235 511 175 488 l 235 519 q 142 601 178 549 q 106 729 106 654 q 143 859 106 800 q 250 953 181 918 q 417 989 319 989 q 582 953 513 989 q 690 859 651 918 q 728 729 728 800 q 692 601 728 654 q 599 519 656 549 l 599 511 q 707 426 660 488 q 754 274 754 364 q 712 124 754 189 q 593 21 669 58 q 417 -17 517 -17 m 417 571 q 540 611 494 571 q 585 715 585 651 q 540 819 585 779 q 417 860 494 860 q 294 819 339 860 q 249 715 249 779 q 294 611 249 651 q 417 571 339 571 m 417 117 q 556 160 503 117 q 608 283 608 204 q 556 406 608 363 q 417 450 503 450 q 278 406 331 450 q 225 283 225 363 q 278 160 225 204 q 417 117 331 117 z "},"9":{"ha":833,"x_min":76,"x_max":774,"o":"m 399 -17 q 238 19 307 -17 q 126 117 168 56 q 76 257 85 179 l 218 257 q 279 154 232 192 q 399 117 326 117 q 563 205 500 117 q 635 481 625 293 l 625 481 q 536 385 590 422 q 382 347 482 347 q 229 387 299 347 q 118 497 160 426 q 76 661 76 568 q 117 824 76 750 q 230 944 157 899 q 403 989 303 989 q 613 931 531 989 q 734 769 694 874 q 774 521 774 664 q 730 239 774 360 q 602 51 686 118 q 399 -17 518 -17 m 413 479 q 551 533 499 479 q 603 667 603 586 q 551 802 603 749 q 413 856 499 856 q 274 803 326 856 q 222 668 222 750 q 274 533 222 586 q 413 479 326 479 z "},"A":{"ha":833,"x_min":39,"x_max":794,"o":"m 39 0 l 329 972 l 504 972 l 794 0 l 635 0 l 569 233 l 264 233 l 199 0 l 39 0 m 413 764 l 297 351 l 536 351 l 421 764 l 413 764 z "},"Á":{"ha":833,"x_min":39,"x_max":794,"o":"m 39 0 l 329 972 l 504 972 l 794 0 l 635 0 l 569 233 l 264 233 l 199 0 l 39 0 m 413 764 l 297 351 l 536 351 l 421 764 l 413 764 z "},"Ă":{"ha":833,"x_min":39,"x_max":794,"o":"m 39 0 l 329 972 l 504 972 l 794 0 l 635 0 l 569 233 l 264 233 l 199 0 l 39 0 m 413 764 l 297 351 l 536 351 l 421 764 l 413 764 z "},"Â":{"ha":833,"x_min":39,"x_max":794,"o":"m 39 0 l 329 972 l 504 972 l 794 0 l 635 0 l 569 233 l 264 233 l 199 0 l 39 0 m 413 764 l 297 351 l 536 351 l 421 764 l 413 764 z "},"Ä":{"ha":833,"x_min":39,"x_max":794,"o":"m 39 0 l 329 972 l 504 972 l 794 0 l 635 0 l 569 233 l 264 233 l 199 0 l 39 0 m 413 764 l 297 351 l 536 351 l 421 764 l 413 764 z "},"À":{"ha":833,"x_min":39,"x_max":794,"o":"m 39 0 l 329 972 l 504 972 l 794 0 l 635 0 l 569 233 l 264 233 l 199 0 l 39 0 m 413 764 l 297 351 l 536 351 l 421 764 l 413 764 z "},"Ā":{"ha":833,"x_min":39,"x_max":794,"o":"m 39 0 l 329 972 l 504 972 l 794 0 l 635 0 l 569 233 l 264 233 l 199 0 l 39 0 m 413 764 l 297 351 l 536 351 l 421 764 l 413 764 z "},"Ą":{"ha":833,"x_min":39,"x_max":800,"o":"m 39 0 l 329 972 l 504 972 l 794 0 l 635 0 l 569 233 l 264 233 l 199 0 l 39 0 m 413 764 l 297 351 l 536 351 l 421 764 l 413 764 z "},"Å":{"ha":833,"x_min":39,"x_max":794,"o":"m 39 0 l 329 972 l 504 972 l 794 0 l 635 0 l 569 233 l 264 233 l 199 0 l 39 0 m 413 764 l 297 351 l 536 351 l 421 764 l 413 764 z "},"Ã":{"ha":833,"x_min":39,"x_max":794,"o":"m 39 0 l 329 972 l 504 972 l 794 0 l 635 0 l 569 233 l 264 233 l 199 0 l 39 0 m 413 764 l 297 351 l 536 351 l 421 764 l 413 764 z "},"Æ":{"ha":833,"x_min":0,"x_max":825,"o":"m 0 0 l 299 972 l 825 972 l 825 840 l 564 840 l 564 557 l 783 557 l 783 426 l 564 426 l 564 132 l 825 132 l 825 0 l 417 0 l 417 233 l 226 233 l 160 0 l 0 0 m 399 840 l 260 351 l 417 351 l 417 840 l 399 840 z "},"Ǽ":{"ha":833,"x_min":0,"x_max":825,"o":"m 0 0 l 299 972 l 825 972 l 825 840 l 564 840 l 564 557 l 783 557 l 783 426 l 564 426 l 564 132 l 825 132 l 825 0 l 417 0 l 417 233 l 226 233 l 160 0 l 0 0 m 399 840 l 260 351 l 417 351 l 417 840 l 399 840 z "},"B":{"ha":833,"x_min":78,"x_max":754,"o":"m 78 0 l 78 972 l 425 972 q 654 903 576 972 q 732 724 732 833 q 688 586 732 639 q 585 510 643 533 l 585 500 q 704 419 654 475 q 754 271 754 363 q 717 134 754 196 q 610 36 681 72 q 436 0 539 0 l 78 0 m 225 567 l 407 567 q 536 601 492 567 q 581 704 581 635 q 404 842 581 842 l 225 842 l 225 567 m 225 136 l 417 136 q 556 175 507 136 q 604 289 604 214 q 553 402 604 363 q 414 442 501 442 l 225 442 l 225 136 z "},"C":{"ha":833,"x_min":36,"x_max":778,"o":"m 419 -17 q 212 46 297 -17 q 81 222 126 108 q 36 485 36 335 q 81 749 36 636 q 213 926 126 863 q 419 989 299 989 q 669 903 576 989 q 778 672 763 818 l 615 672 q 553 799 603 749 q 418 850 504 850 q 247 753 308 850 q 186 485 186 656 q 247 219 186 315 q 418 122 308 122 q 554 169 507 122 q 615 292 601 215 l 778 292 q 665 66 756 149 q 419 -17 575 -17 z "},"Ć":{"ha":833,"x_min":36,"x_max":778,"o":"m 419 -17 q 212 46 297 -17 q 81 222 126 108 q 36 485 36 335 q 81 749 36 636 q 213 926 126 863 q 419 989 299 989 q 669 903 576 989 q 778 672 763 818 l 615 672 q 553 799 603 749 q 418 850 504 850 q 247 753 308 850 q 186 485 186 656 q 247 219 186 315 q 418 122 308 122 q 554 169 507 122 q 615 292 601 215 l 778 292 q 665 66 756 149 q 419 -17 575 -17 z "},"Č":{"ha":833,"x_min":36,"x_max":778,"o":"m 419 -17 q 212 46 297 -17 q 81 222 126 108 q 36 485 36 335 q 81 749 36 636 q 213 926 126 863 q 419 989 299 989 q 669 903 576 989 q 778 672 763 818 l 615 672 q 553 799 603 749 q 418 850 504 850 q 247 753 308 850 q 186 485 186 656 q 247 219 186 315 q 418 122 308 122 q 554 169 507 122 q 615 292 601 215 l 778 292 q 665 66 756 149 q 419 -17 575 -17 z "},"Ç":{"ha":833,"x_min":36,"x_max":778,"o":"m 419 -17 q 212 46 297 -17 q 81 222 126 108 q 36 485 36 335 q 81 749 36 636 q 213 926 126 863 q 419 989 299 989 q 669 903 576 989 q 778 672 763 818 l 615 672 q 553 799 603 749 q 418 850 504 850 q 247 753 308 850 q 186 485 186 656 q 247 219 186 315 q 418 122 308 122 q 554 169 507 122 q 615 292 601 215 l 778 292 q 665 66 756 149 q 419 -17 575 -17 z "},"Ċ":{"ha":833,"x_min":36,"x_max":778,"o":"m 419 -17 q 212 46 297 -17 q 81 222 126 108 q 36 485 36 335 q 81 749 36 636 q 213 926 126 863 q 419 989 299 989 q 669 903 576 989 q 778 672 763 818 l 615 672 q 553 799 603 749 q 418 850 504 850 q 247 753 308 850 q 186 485 186 656 q 247 219 186 315 q 418 122 308 122 q 554 169 507 122 q 615 292 601 215 l 778 292 q 665 66 756 149 q 419 -17 575 -17 z "},"D":{"ha":833,"x_min":79,"x_max":775,"o":"m 79 0 l 79 972 l 313 972 q 661 842 547 972 q 775 486 775 713 q 661 130 775 260 q 313 0 547 0 l 79 0 m 226 136 l 307 136 q 551 231 476 136 q 626 486 626 326 q 551 741 626 646 q 307 836 476 836 l 226 836 l 226 136 z "},"Ð":{"ha":833,"x_min":7,"x_max":775,"o":"m 107 0 l 107 424 l 7 424 l 7 549 l 107 549 l 107 972 l 313 972 q 661 842 547 972 q 775 486 775 713 q 661 130 775 260 q 313 0 547 0 l 107 0 m 254 136 l 307 136 q 551 231 476 136 q 626 486 626 326 q 551 741 626 646 q 307 836 476 836 l 254 836 l 254 549 l 444 549 l 444 424 l 254 424 l 254 136 z "},"Ď":{"ha":833,"x_min":79,"x_max":775,"o":"m 79 0 l 79 972 l 313 972 q 661 842 547 972 q 775 486 775 713 q 661 130 775 260 q 313 0 547 0 l 79 0 m 226 136 l 307 136 q 551 231 476 136 q 626 486 626 326 q 551 741 626 646 q 307 836 476 836 l 226 836 l 226 136 z "},"Đ":{"ha":833,"x_min":7,"x_max":775,"o":"m 107 0 l 107 424 l 7 424 l 7 549 l 107 549 l 107 972 l 313 972 q 661 842 547 972 q 775 486 775 713 q 661 130 775 260 q 313 0 547 0 l 107 0 m 254 136 l 307 136 q 551 231 476 136 q 626 486 626 326 q 551 741 626 646 q 307 836 476 836 l 254 836 l 254 549 l 444 549 l 444 424 l 254 424 l 254 136 z "},"E":{"ha":833,"x_min":111,"x_max":732,"o":"m 111 0 l 111 972 l 732 972 l 732 840 l 258 840 l 258 557 l 690 557 l 690 426 l 258 426 l 258 132 l 732 132 l 732 0 l 111 0 z "},"É":{"ha":833,"x_min":111,"x_max":732,"o":"m 111 0 l 111 972 l 732 972 l 732 840 l 258 840 l 258 557 l 690 557 l 690 426 l 258 426 l 258 132 l 732 132 l 732 0 l 111 0 z "},"Ĕ":{"ha":833,"x_min":111,"x_max":732,"o":"m 111 0 l 111 972 l 732 972 l 732 840 l 258 840 l 258 557 l 690 557 l 690 426 l 258 426 l 258 132 l 732 132 l 732 0 l 111 0 z "},"Ě":{"ha":833,"x_min":111,"x_max":732,"o":"m 111 0 l 111 972 l 732 972 l 732 840 l 258 840 l 258 557 l 690 557 l 690 426 l 258 426 l 258 132 l 732 132 l 732 0 l 111 0 z "},"Ê":{"ha":833,"x_min":111,"x_max":732,"o":"m 111 0 l 111 972 l 732 972 l 732 840 l 258 840 l 258 557 l 690 557 l 690 426 l 258 426 l 258 132 l 732 132 l 732 0 l 111 0 z "},"Ë":{"ha":833,"x_min":111,"x_max":732,"o":"m 111 0 l 111 972 l 732 972 l 732 840 l 258 840 l 258 557 l 690 557 l 690 426 l 258 426 l 258 132 l 732 132 l 732 0 l 111 0 z "},"Ė":{"ha":833,"x_min":111,"x_max":732,"o":"m 111 0 l 111 972 l 732 972 l 732 840 l 258 840 l 258 557 l 690 557 l 690 426 l 258 426 l 258 132 l 732 132 l 732 0 l 111 0 z "},"È":{"ha":833,"x_min":111,"x_max":732,"o":"m 111 0 l 111 972 l 732 972 l 732 840 l 258 840 l 258 557 l 690 557 l 690 426 l 258 426 l 258 132 l 732 132 l 732 0 l 111 0 z "},"Ē":{"ha":833,"x_min":111,"x_max":732,"o":"m 111 0 l 111 972 l 732 972 l 732 840 l 258 840 l 258 557 l 690 557 l 690 426 l 258 426 l 258 132 l 732 132 l 732 0 l 111 0 m 181 818 l 181 926 l 653 926 l 653 818 l 181 818 z "},"Ę":{"ha":833,"x_min":111,"x_max":738,"o":"m 111 0 l 111 972 l 732 972 l 732 840 l 258 840 l 258 557 l 690 557 l 690 426 l 258 426 l 258 132 l 732 132 l 732 0 l 111 0 z "},"Ẽ":{"ha":833,"x_min":111,"x_max":732,"o":"m 111 0 l 111 972 l 732 972 l 732 840 l 258 840 l 258 557 l 690 557 l 690 426 l 258 426 l 258 132 l 732 132 l 732 0 l 111 0 z "},"F":{"ha":833,"x_min":117,"x_max":740,"o":"m 117 0 l 117 972 l 740 972 l 740 835 l 264 835 l 264 538 l 664 538 l 664 408 l 264 408 l 264 0 l 117 0 z "},"G":{"ha":833,"x_min":40,"x_max":776,"o":"m 404 -17 q 214 45 296 -17 q 86 219 132 107 q 40 486 40 332 q 86 750 40 638 q 217 926 132 863 q 422 989 303 989 q 655 910 567 989 q 763 686 743 831 l 603 686 q 542 806 589 761 q 422 850 496 850 q 250 753 310 850 q 190 486 190 656 q 253 216 190 310 q 418 122 317 122 q 531 163 486 122 q 599 266 575 203 q 628 400 622 329 l 424 400 l 424 522 l 776 522 l 776 0 l 640 0 l 631 131 l 622 131 q 544 25 594 67 q 404 -17 494 -17 z "},"Ğ":{"ha":833,"x_min":40,"x_max":776,"o":"m 404 -17 q 214 45 296 -17 q 86 219 132 107 q 40 486 40 332 q 86 750 40 638 q 217 926 132 863 q 422 989 303 989 q 655 910 567 989 q 763 686 743 831 l 603 686 q 542 806 589 761 q 422 850 496 850 q 250 753 310 850 q 190 486 190 656 q 253 216 190 310 q 418 122 317 122 q 531 163 486 122 q 599 266 575 203 q 628 400 622 329 l 424 400 l 424 522 l 776 522 l 776 0 l 640 0 l 631 131 l 622 131 q 544 25 594 67 q 404 -17 494 -17 z "},"Ģ":{"ha":833,"x_min":40,"x_max":776,"o":"m 404 -17 q 214 45 296 -17 q 86 219 132 107 q 40 486 40 332 q 86 750 40 638 q 217 926 132 863 q 422 989 303 989 q 655 910 567 989 q 763 686 743 831 l 603 686 q 542 806 589 761 q 422 850 496 850 q 250 753 310 850 q 190 486 190 656 q 253 216 190 310 q 418 122 317 122 q 531 163 486 122 q 599 266 575 203 q 628 400 622 329 l 424 400 l 424 522 l 776 522 l 776 0 l 640 0 l 631 131 l 622 131 q 544 25 594 67 q 404 -17 494 -17 m 249 -385 l 333 -94 l 518 -94 l 385 -385 l 249 -385 z "},"Ġ":{"ha":833,"x_min":40,"x_max":776,"o":"m 404 -17 q 214 45 296 -17 q 86 219 132 107 q 40 486 40 332 q 86 750 40 638 q 217 926 132 863 q 422 989 303 989 q 655 910 567 989 q 763 686 743 831 l 603 686 q 542 806 589 761 q 422 850 496 850 q 250 753 310 850 q 190 486 190 656 q 253 216 190 310 q 418 122 317 122 q 531 163 486 122 q 599 266 575 203 q 628 400 622 329 l 424 400 l 424 522 l 776 522 l 776 0 l 640 0 l 631 131 l 622 131 q 544 25 594 67 q 404 -17 494 -17 z "},"H":{"ha":833,"x_min":57,"x_max":776,"o":"m 57 0 l 57 972 l 204 972 l 204 569 l 629 569 l 629 972 l 776 972 l 776 0 l 629 0 l 629 435 l 204 435 l 204 0 l 57 0 z "},"I":{"ha":833,"x_min":132,"x_max":701,"o":"m 132 0 l 132 131 l 343 131 l 343 842 l 135 842 l 135 972 l 699 972 l 699 842 l 490 842 l 490 131 l 701 131 l 701 0 l 132 0 z "},"Í":{"ha":833,"x_min":132,"x_max":701,"o":"m 132 0 l 132 131 l 343 131 l 343 842 l 135 842 l 135 972 l 699 972 l 699 842 l 490 842 l 490 131 l 701 131 l 701 0 l 132 0 z "},"Ĭ":{"ha":833,"x_min":132,"x_max":701,"o":"m 132 0 l 132 131 l 343 131 l 343 842 l 135 842 l 135 972 l 699 972 l 699 842 l 490 842 l 490 131 l 701 131 l 701 0 l 132 0 z "},"Î":{"ha":833,"x_min":132,"x_max":701,"o":"m 132 0 l 132 131 l 343 131 l 343 842 l 135 842 l 135 972 l 699 972 l 699 842 l 490 842 l 490 131 l 701 131 l 701 0 l 132 0 z "},"Ï":{"ha":833,"x_min":132,"x_max":701,"o":"m 132 0 l 132 131 l 343 131 l 343 842 l 135 842 l 135 972 l 699 972 l 699 842 l 490 842 l 490 131 l 701 131 l 701 0 l 132 0 z "},"İ":{"ha":833,"x_min":132,"x_max":701,"o":"m 132 0 l 132 131 l 343 131 l 343 842 l 135 842 l 135 972 l 699 972 l 699 842 l 490 842 l 490 131 l 701 131 l 701 0 l 132 0 z "},"Ì":{"ha":833,"x_min":132,"x_max":701,"o":"m 132 0 l 132 131 l 343 131 l 343 842 l 135 842 l 135 972 l 699 972 l 699 842 l 490 842 l 490 131 l 701 131 l 701 0 l 132 0 z "},"Ī":{"ha":833,"x_min":132,"x_max":701,"o":"m 132 0 l 132 131 l 343 131 l 343 842 l 135 842 l 135 972 l 699 972 l 699 842 l 490 842 l 490 131 l 701 131 l 701 0 l 132 0 z "},"Į":{"ha":833,"x_min":132,"x_max":707,"o":"m 132 0 l 132 131 l 343 131 l 343 842 l 135 842 l 135 972 l 699 972 l 699 842 l 490 842 l 490 131 l 701 131 l 701 0 l 132 0 z "},"Ĩ":{"ha":833,"x_min":132,"x_max":701,"o":"m 132 0 l 132 131 l 343 131 l 343 842 l 135 842 l 135 972 l 699 972 l 699 842 l 490 842 l 490 131 l 701 131 l 701 0 l 132 0 z "},"J":{"ha":833,"x_min":118,"x_max":728,"o":"m 429 -17 q 199 67 279 -17 q 118 299 118 151 l 267 299 q 306 169 268 222 q 428 117 343 117 q 545 168 510 117 q 581 296 581 219 l 581 972 l 728 972 l 728 296 q 649 65 728 146 q 429 -17 569 -17 z "},"K":{"ha":833,"x_min":106,"x_max":788,"o":"m 106 0 l 106 972 l 253 972 l 253 528 l 597 972 l 779 972 l 399 490 l 399 482 l 788 0 l 601 0 l 253 436 l 253 0 l 106 0 z "},"Ķ":{"ha":833,"x_min":106,"x_max":788,"o":"m 106 0 l 106 972 l 253 972 l 253 528 l 597 972 l 779 972 l 399 490 l 399 482 l 788 0 l 601 0 l 253 436 l 253 0 l 106 0 m 249 -385 l 333 -94 l 518 -94 l 385 -385 l 249 -385 z "},"L":{"ha":833,"x_min":113,"x_max":739,"o":"m 113 0 l 113 972 l 260 972 l 260 132 l 739 132 l 739 0 l 113 0 z "},"Ĺ":{"ha":833,"x_min":104,"x_max":739,"o":"m 113 0 l 113 972 l 260 972 l 260 132 l 739 132 l 739 0 l 113 0 z "},"Ľ":{"ha":833,"x_min":113,"x_max":740,"o":"m 113 0 l 113 972 l 260 972 l 260 132 l 739 132 l 739 0 l 113 0 m 508 661 l 568 972 l 740 972 l 626 661 l 508 661 z "},"Ļ":{"ha":833,"x_min":113,"x_max":739,"o":"m 113 0 l 113 972 l 260 972 l 260 132 l 739 132 l 739 0 l 113 0 m 258 -385 l 343 -94 l 528 -94 l 394 -385 l 258 -385 z "},"Ŀ":{"ha":833,"x_min":113,"x_max":739,"o":"m 113 0 l 113 972 l 260 972 l 260 132 l 739 132 l 739 0 l 113 0 m 601 374 q 521 406 554 374 q 488 482 488 438 q 521 559 488 528 q 601 590 554 590 q 683 559 650 590 q 717 482 717 528 q 683 406 717 438 q 601 374 650 374 z "},"Ł":{"ha":833,"x_min":28,"x_max":774,"o":"m 147 0 l 147 324 l 28 276 l 28 404 l 147 451 l 147 972 l 294 972 l 294 511 l 472 582 l 472 454 l 294 383 l 294 132 l 774 132 l 774 0 l 147 0 z "},"M":{"ha":833,"x_min":60,"x_max":774,"o":"m 60 0 l 60 972 l 215 972 l 417 533 l 618 972 l 774 972 l 774 0 l 633 0 l 633 692 l 475 344 l 358 344 l 200 690 l 200 0 l 60 0 z "},"N":{"ha":833,"x_min":71,"x_max":763,"o":"m 71 0 l 71 972 l 215 972 l 622 260 l 622 972 l 763 972 l 763 0 l 618 0 l 211 713 l 211 0 l 71 0 z "},"Ń":{"ha":833,"x_min":71,"x_max":763,"o":"m 71 0 l 71 972 l 215 972 l 622 260 l 622 972 l 763 972 l 763 0 l 618 0 l 211 713 l 211 0 l 71 0 z "},"Ň":{"ha":833,"x_min":71,"x_max":763,"o":"m 71 0 l 71 972 l 215 972 l 622 260 l 622 972 l 763 972 l 763 0 l 618 0 l 211 713 l 211 0 l 71 0 z "},"Ņ":{"ha":833,"x_min":71,"x_max":763,"o":"m 71 0 l 71 972 l 215 972 l 622 260 l 622 972 l 763 972 l 763 0 l 618 0 l 211 713 l 211 0 l 71 0 m 249 -385 l 333 -94 l 518 -94 l 385 -385 l 249 -385 z "},"Ñ":{"ha":833,"x_min":71,"x_max":763,"o":"m 71 0 l 71 972 l 215 972 l 622 260 l 622 972 l 763 972 l 763 0 l 618 0 l 211 713 l 211 0 l 71 0 z "},"O":{"ha":833,"x_min":35,"x_max":799,"o":"m 417 -17 q 213 44 299 -17 q 81 218 126 106 q 35 486 35 331 q 81 754 35 642 q 213 928 126 867 q 417 989 299 989 q 622 928 536 989 q 753 754 707 867 q 799 486 799 642 q 753 218 799 331 q 622 44 707 106 q 417 -17 536 -17 m 417 122 q 585 216 521 122 q 649 486 649 310 q 585 756 649 663 q 417 850 521 850 q 248 756 311 850 q 185 486 185 663 q 248 216 185 310 q 417 122 311 122 z "},"Ó":{"ha":833,"x_min":35,"x_max":799,"o":"m 417 -17 q 213 44 299 -17 q 81 218 126 106 q 35 486 35 331 q 81 754 35 642 q 213 928 126 867 q 417 989 299 989 q 622 928 536 989 q 753 754 707 867 q 799 486 799 642 q 753 218 799 331 q 622 44 707 106 q 417 -17 536 -17 m 417 122 q 585 216 521 122 q 649 486 649 310 q 585 756 649 663 q 417 850 521 850 q 248 756 311 850 q 185 486 185 663 q 248 216 185 310 q 417 122 311 122 z "},"Ŏ":{"ha":833,"x_min":35,"x_max":799,"o":"m 417 -17 q 213 44 299 -17 q 81 218 126 106 q 35 486 35 331 q 81 754 35 642 q 213 928 126 867 q 417 989 299 989 q 622 928 536 989 q 753 754 707 867 q 799 486 799 642 q 753 218 799 331 q 622 44 707 106 q 417 -17 536 -17 m 417 122 q 585 216 521 122 q 649 486 649 310 q 585 756 649 663 q 417 850 521 850 q 248 756 311 850 q 185 486 185 663 q 248 216 185 310 q 417 122 311 122 z "},"Ô":{"ha":833,"x_min":35,"x_max":799,"o":"m 417 -17 q 213 44 299 -17 q 81 218 126 106 q 35 486 35 331 q 81 754 35 642 q 213 928 126 867 q 417 989 299 989 q 622 928 536 989 q 753 754 707 867 q 799 486 799 642 q 753 218 799 331 q 622 44 707 106 q 417 -17 536 -17 m 417 122 q 585 216 521 122 q 649 486 649 310 q 585 756 649 663 q 417 850 521 850 q 248 756 311 850 q 185 486 185 663 q 248 216 185 310 q 417 122 311 122 z "},"Ö":{"ha":833,"x_min":35,"x_max":799,"o":"m 417 -17 q 213 44 299 -17 q 81 218 126 106 q 35 486 35 331 q 81 754 35 642 q 213 928 126 867 q 417 989 299 989 q 622 928 536 989 q 753 754 707 867 q 799 486 799 642 q 753 218 799 331 q 622 44 707 106 q 417 -17 536 -17 m 417 122 q 585 216 521 122 q 649 486 649 310 q 585 756 649 663 q 417 850 521 850 q 248 756 311 850 q 185 486 185 663 q 248 216 185 310 q 417 122 311 122 z "},"Ò":{"ha":833,"x_min":35,"x_max":799,"o":"m 417 -17 q 213 44 299 -17 q 81 218 126 106 q 35 486 35 331 q 81 754 35 642 q 213 928 126 867 q 417 989 299 989 q 622 928 536 989 q 753 754 707 867 q 799 486 799 642 q 753 218 799 331 q 622 44 707 106 q 417 -17 536 -17 m 417 122 q 585 216 521 122 q 649 486 649 310 q 585 756 649 663 q 417 850 521 850 q 248 756 311 850 q 185 486 185 663 q 248 216 185 310 q 417 122 311 122 z "},"Ő":{"ha":833,"x_min":35,"x_max":799,"o":"m 417 -17 q 213 44 299 -17 q 81 218 126 106 q 35 486 35 331 q 81 754 35 642 q 213 928 126 867 q 417 989 299 989 q 622 928 536 989 q 753 754 707 867 q 799 486 799 642 q 753 218 799 331 q 622 44 707 106 q 417 -17 536 -17 m 417 122 q 585 216 521 122 q 649 486 649 310 q 585 756 649 663 q 417 850 521 850 q 248 756 311 850 q 185 486 185 663 q 248 216 185 310 q 417 122 311 122 z "},"Ō":{"ha":833,"x_min":35,"x_max":799,"o":"m 417 -17 q 213 44 299 -17 q 81 218 126 106 q 35 486 35 331 q 81 754 35 642 q 213 928 126 867 q 417 989 299 989 q 622 928 536 989 q 753 754 707 867 q 799 486 799 642 q 753 218 799 331 q 622 44 707 106 q 417 -17 536 -17 m 417 122 q 585 216 521 122 q 649 486 649 310 q 585 756 649 663 q 417 850 521 850 q 248 756 311 850 q 185 486 185 663 q 248 216 185 310 q 417 122 311 122 z "},"Ø":{"ha":833,"x_min":32,"x_max":803,"o":"m 32 -28 l 128 129 q 59 285 83 194 q 35 486 35 375 q 81 754 35 642 q 213 928 126 867 q 417 989 299 989 q 619 929 533 989 l 663 1000 l 803 1000 l 706 842 q 774 687 750 776 q 799 486 799 597 q 753 218 799 331 q 622 44 707 106 q 417 -17 536 -17 q 215 42 301 -17 l 172 -28 l 32 -28 m 185 486 q 218 275 185 363 l 543 804 q 417 850 489 850 q 248 756 311 850 q 185 486 185 663 m 417 122 q 585 216 521 122 q 649 486 649 310 q 615 694 649 608 l 292 167 q 417 122 344 122 z "},"Õ":{"ha":833,"x_min":35,"x_max":799,"o":"m 417 -17 q 213 44 299 -17 q 81 218 126 106 q 35 486 35 331 q 81 754 35 642 q 213 928 126 867 q 417 989 299 989 q 622 928 536 989 q 753 754 707 867 q 799 486 799 642 q 753 218 799 331 q 622 44 707 106 q 417 -17 536 -17 m 417 122 q 585 216 521 122 q 649 486 649 310 q 585 756 649 663 q 417 850 521 850 q 248 756 311 850 q 185 486 185 663 q 248 216 185 310 q 417 122 311 122 z "},"Œ":{"ha":833,"x_min":24,"x_max":824,"o":"m 276 -17 q 91 101 158 -17 q 24 486 24 218 q 55 776 24 665 q 143 938 86 886 q 278 989 200 989 q 422 903 371 989 l 431 903 l 431 972 l 824 972 l 824 840 l 574 840 l 574 557 l 782 557 l 782 426 l 574 426 l 574 132 l 824 132 l 824 0 l 431 0 l 431 75 l 422 75 q 365 7 397 31 q 276 -17 333 -17 m 297 113 q 372 148 340 113 q 420 265 403 183 q 438 486 438 347 q 420 707 438 625 q 372 824 403 789 q 297 860 340 860 q 226 824 256 860 q 181 707 197 789 q 165 486 165 625 q 181 265 165 347 q 226 148 197 183 q 297 113 256 113 z "},"P":{"ha":833,"x_min":99,"x_max":753,"o":"m 99 0 l 99 972 l 428 972 q 611 934 539 972 q 718 829 683 896 q 753 676 753 763 q 718 524 753 590 q 611 419 683 457 q 428 381 539 381 l 246 381 l 246 0 l 99 0 m 246 513 l 421 513 q 559 557 515 513 q 603 676 603 601 q 559 795 603 750 q 421 840 515 840 l 246 840 l 246 513 z "},"Þ":{"ha":833,"x_min":99,"x_max":753,"o":"m 99 0 l 99 972 l 246 972 l 246 782 l 428 782 q 611 744 539 782 q 718 639 683 706 q 753 486 753 572 q 718 334 753 401 q 611 228 683 267 q 428 190 539 190 l 246 190 l 246 0 l 99 0 m 246 322 l 421 322 q 559 367 515 322 q 603 486 603 413 q 559 606 603 561 q 421 650 515 650 l 246 650 l 246 322 z "},"Q":{"ha":833,"x_min":35,"x_max":799,"o":"m 417 -17 q 213 44 299 -17 q 81 218 126 106 q 35 486 35 331 q 81 754 35 642 q 213 928 126 867 q 417 989 299 989 q 622 928 536 989 q 753 754 707 867 q 799 486 799 642 q 742 194 799 314 q 585 22 686 75 l 793 -212 l 606 -212 l 431 -17 q 417 -17 424 -17 m 417 122 q 585 216 521 122 q 649 486 649 310 q 585 756 649 663 q 417 850 521 850 q 248 756 311 850 q 185 486 185 663 q 248 216 185 310 q 417 122 311 122 z "},"R":{"ha":833,"x_min":104,"x_max":768,"o":"m 104 0 l 104 972 l 422 972 q 610 933 536 972 q 722 828 685 894 q 758 679 758 763 q 710 512 758 585 q 564 406 663 439 l 768 0 l 597 0 l 411 385 l 251 385 l 251 0 l 104 0 m 251 518 l 414 518 q 560 563 514 518 q 607 679 607 607 q 561 797 607 753 q 413 840 515 840 l 251 840 l 251 518 z "},"Ŕ":{"ha":833,"x_min":104,"x_max":768,"o":"m 104 0 l 104 972 l 422 972 q 610 933 536 972 q 722 828 685 894 q 758 679 758 763 q 710 512 758 585 q 564 406 663 439 l 768 0 l 597 0 l 411 385 l 251 385 l 251 0 l 104 0 m 251 518 l 414 518 q 560 563 514 518 q 607 679 607 607 q 561 797 607 753 q 413 840 515 840 l 251 840 l 251 518 z "},"Ř":{"ha":833,"x_min":104,"x_max":768,"o":"m 104 0 l 104 972 l 422 972 q 610 933 536 972 q 722 828 685 894 q 758 679 758 763 q 710 512 758 585 q 564 406 663 439 l 768 0 l 597 0 l 411 385 l 251 385 l 251 0 l 104 0 m 251 518 l 414 518 q 560 563 514 518 q 607 679 607 607 q 561 797 607 753 q 413 840 515 840 l 251 840 l 251 518 z "},"Ŗ":{"ha":833,"x_min":104,"x_max":768,"o":"m 104 0 l 104 972 l 422 972 q 610 933 536 972 q 722 828 685 894 q 758 679 758 763 q 710 512 758 585 q 564 406 663 439 l 768 0 l 597 0 l 411 385 l 251 385 l 251 0 l 104 0 m 251 518 l 414 518 q 560 563 514 518 q 607 679 607 607 q 561 797 607 753 q 413 840 515 840 l 251 840 l 251 518 m 249 -385 l 333 -94 l 518 -94 l 385 -385 l 249 -385 z "},"S":{"ha":833,"x_min":81,"x_max":753,"o":"m 426 -17 q 247 21 324 -17 q 126 128 169 58 q 81 293 82 197 l 236 293 q 287 167 238 219 q 425 115 336 115 q 553 153 507 115 q 599 253 599 192 q 572 338 599 304 q 488 399 544 372 q 340 456 431 426 q 163 563 219 494 q 106 732 106 632 q 189 918 106 847 q 418 989 272 989 q 646 916 560 989 q 735 714 732 843 l 578 714 q 558 781 578 749 q 503 835 539 814 q 414 857 467 857 q 304 826 349 858 q 260 738 260 793 q 314 631 260 669 q 490 553 368 593 q 626 492 567 528 q 719 402 685 457 q 753 263 753 347 q 714 122 753 185 q 602 21 675 58 q 426 -17 529 -17 z "},"Ś":{"ha":833,"x_min":81,"x_max":753,"o":"m 426 -17 q 247 21 324 -17 q 126 128 169 58 q 81 293 82 197 l 236 293 q 287 167 238 219 q 425 115 336 115 q 553 153 507 115 q 599 253 599 192 q 572 338 599 304 q 488 399 544 372 q 340 456 431 426 q 163 563 219 494 q 106 732 106 632 q 189 918 106 847 q 418 989 272 989 q 646 916 560 989 q 735 714 732 843 l 578 714 q 558 781 578 749 q 503 835 539 814 q 414 857 467 857 q 304 826 349 858 q 260 738 260 793 q 314 631 260 669 q 490 553 368 593 q 626 492 567 528 q 719 402 685 457 q 753 263 753 347 q 714 122 753 185 q 602 21 675 58 q 426 -17 529 -17 z "},"Š":{"ha":833,"x_min":81,"x_max":753,"o":"m 426 -17 q 247 21 324 -17 q 126 128 169 58 q 81 293 82 197 l 236 293 q 287 167 238 219 q 425 115 336 115 q 553 153 507 115 q 599 253 599 192 q 572 338 599 304 q 488 399 544 372 q 340 456 431 426 q 163 563 219 494 q 106 732 106 632 q 189 918 106 847 q 418 989 272 989 q 646 916 560 989 q 735 714 732 843 l 578 714 q 558 781 578 749 q 503 835 539 814 q 414 857 467 857 q 304 826 349 858 q 260 738 260 793 q 314 631 260 669 q 490 553 368 593 q 626 492 567 528 q 719 402 685 457 q 753 263 753 347 q 714 122 753 185 q 602 21 675 58 q 426 -17 529 -17 z "},"Ş":{"ha":833,"x_min":81,"x_max":753,"o":"m 426 -17 q 247 21 324 -17 q 126 128 169 58 q 81 293 82 197 l 236 293 q 287 167 238 219 q 425 115 336 115 q 553 153 507 115 q 599 253 599 192 q 572 338 599 304 q 488 399 544 372 q 340 456 431 426 q 163 563 219 494 q 106 732 106 632 q 189 918 106 847 q 418 989 272 989 q 646 916 560 989 q 735 714 732 843 l 578 714 q 558 781 578 749 q 503 835 539 814 q 414 857 467 857 q 304 826 349 858 q 260 738 260 793 q 314 631 260 669 q 490 553 368 593 q 626 492 567 528 q 719 402 685 457 q 753 263 753 347 q 714 122 753 185 q 602 21 675 58 q 426 -17 529 -17 z "},"Ș":{"ha":833,"x_min":81,"x_max":753,"o":"m 426 -17 q 247 21 324 -17 q 126 128 169 58 q 81 293 82 197 l 236 293 q 287 167 238 219 q 425 115 336 115 q 553 153 507 115 q 599 253 599 192 q 572 338 599 304 q 488 399 544 372 q 340 456 431 426 q 163 563 219 494 q 106 732 106 632 q 189 918 106 847 q 418 989 272 989 q 646 916 560 989 q 735 714 732 843 l 578 714 q 558 781 578 749 q 503 835 539 814 q 414 857 467 857 q 304 826 349 858 q 260 738 260 793 q 314 631 260 669 q 490 553 368 593 q 626 492 567 528 q 719 402 685 457 q 753 263 753 347 q 714 122 753 185 q 602 21 675 58 q 426 -17 529 -17 m 249 -385 l 333 -94 l 518 -94 l 385 -385 l 249 -385 z "},"Ə":{"ha":833,"x_min":47,"x_max":790,"o":"m 403 -17 q 200 49 279 -17 q 84 224 121 114 q 47 467 47 333 q 48 499 47 482 q 50 533 49 515 l 639 533 q 603 707 635 636 q 520 814 571 778 q 411 850 469 850 q 285 808 339 850 q 211 692 232 765 l 60 692 q 122 844 76 778 q 240 950 167 911 q 411 989 313 989 q 690 858 590 989 q 790 490 790 726 q 744 217 790 331 q 610 44 697 104 q 403 -17 524 -17 m 404 121 q 563 194 497 121 q 639 411 628 268 l 197 411 q 251 200 200 279 q 404 121 303 121 z "},"T":{"ha":833,"x_min":82,"x_max":751,"o":"m 343 0 l 343 840 l 82 840 l 82 972 l 751 972 l 751 840 l 490 840 l 490 0 l 343 0 z "},"Ť":{"ha":833,"x_min":82,"x_max":751,"o":"m 343 0 l 343 840 l 82 840 l 82 972 l 751 972 l 751 840 l 490 840 l 490 0 l 343 0 z "},"Ţ":{"ha":833,"x_min":82,"x_max":751,"o":"m 343 0 l 343 840 l 82 840 l 82 972 l 751 972 l 751 840 l 490 840 l 490 0 l 343 0 z "},"Ț":{"ha":833,"x_min":82,"x_max":751,"o":"m 343 0 l 343 840 l 82 840 l 82 972 l 751 972 l 751 840 l 490 840 l 490 0 l 343 0 m 249 -385 l 333 -94 l 518 -94 l 385 -385 l 249 -385 z "},"U":{"ha":833,"x_min":72,"x_max":761,"o":"m 414 -17 q 238 24 315 -17 q 117 147 161 64 q 72 356 72 229 l 72 972 l 219 972 l 219 347 q 272 176 219 236 q 417 115 325 115 q 561 176 508 115 q 614 347 614 236 l 614 972 l 761 972 l 761 356 q 715 147 761 229 q 591 24 669 64 q 414 -17 513 -17 z "},"Ú":{"ha":833,"x_min":72,"x_max":761,"o":"m 414 -17 q 238 24 315 -17 q 117 147 161 64 q 72 356 72 229 l 72 972 l 219 972 l 219 347 q 272 176 219 236 q 417 115 325 115 q 561 176 508 115 q 614 347 614 236 l 614 972 l 761 972 l 761 356 q 715 147 761 229 q 591 24 669 64 q 414 -17 513 -17 z "},"Ŭ":{"ha":833,"x_min":72,"x_max":761,"o":"m 414 -17 q 238 24 315 -17 q 117 147 161 64 q 72 356 72 229 l 72 972 l 219 972 l 219 347 q 272 176 219 236 q 417 115 325 115 q 561 176 508 115 q 614 347 614 236 l 614 972 l 761 972 l 761 356 q 715 147 761 229 q 591 24 669 64 q 414 -17 513 -17 z "},"Û":{"ha":833,"x_min":72,"x_max":761,"o":"m 414 -17 q 238 24 315 -17 q 117 147 161 64 q 72 356 72 229 l 72 972 l 219 972 l 219 347 q 272 176 219 236 q 417 115 325 115 q 561 176 508 115 q 614 347 614 236 l 614 972 l 761 972 l 761 356 q 715 147 761 229 q 591 24 669 64 q 414 -17 513 -17 z "},"Ü":{"ha":833,"x_min":72,"x_max":761,"o":"m 414 -17 q 238 24 315 -17 q 117 147 161 64 q 72 356 72 229 l 72 972 l 219 972 l 219 347 q 272 176 219 236 q 417 115 325 115 q 561 176 508 115 q 614 347 614 236 l 614 972 l 761 972 l 761 356 q 715 147 761 229 q 591 24 669 64 q 414 -17 513 -17 z "},"Ù":{"ha":833,"x_min":72,"x_max":761,"o":"m 414 -17 q 238 24 315 -17 q 117 147 161 64 q 72 356 72 229 l 72 972 l 219 972 l 219 347 q 272 176 219 236 q 417 115 325 115 q 561 176 508 115 q 614 347 614 236 l 614 972 l 761 972 l 761 356 q 715 147 761 229 q 591 24 669 64 q 414 -17 513 -17 z "},"Ű":{"ha":833,"x_min":72,"x_max":761,"o":"m 414 -17 q 238 24 315 -17 q 117 147 161 64 q 72 356 72 229 l 72 972 l 219 972 l 219 347 q 272 176 219 236 q 417 115 325 115 q 561 176 508 115 q 614 347 614 236 l 614 972 l 761 972 l 761 356 q 715 147 761 229 q 591 24 669 64 q 414 -17 513 -17 z "},"Ū":{"ha":833,"x_min":72,"x_max":761,"o":"m 414 -17 q 238 24 315 -17 q 117 147 161 64 q 72 356 72 229 l 72 972 l 219 972 l 219 347 q 272 176 219 236 q 417 115 325 115 q 561 176 508 115 q 614 347 614 236 l 614 972 l 761 972 l 761 356 q 715 147 761 229 q 591 24 669 64 q 414 -17 513 -17 z "},"Ų":{"ha":833,"x_min":72,"x_max":761,"o":"m 414 -17 q 238 24 315 -17 q 117 147 161 64 q 72 356 72 229 l 72 972 l 219 972 l 219 347 q 272 176 219 236 q 417 115 325 115 q 561 176 508 115 q 614 347 614 236 l 614 972 l 761 972 l 761 356 q 715 147 761 229 q 591 24 669 64 q 414 -17 513 -17 z "},"Ů":{"ha":833,"x_min":72,"x_max":761,"o":"m 414 -17 q 238 24 315 -17 q 117 147 161 64 q 72 356 72 229 l 72 972 l 219 972 l 219 347 q 272 176 219 236 q 417 115 325 115 q 561 176 508 115 q 614 347 614 236 l 614 972 l 761 972 l 761 356 q 715 147 761 229 q 591 24 669 64 q 414 -17 513 -17 z "},"Ũ":{"ha":833,"x_min":72,"x_max":761,"o":"m 414 -17 q 238 24 315 -17 q 117 147 161 64 q 72 356 72 229 l 72 972 l 219 972 l 219 347 q 272 176 219 236 q 417 115 325 115 q 561 176 508 115 q 614 347 614 236 l 614 972 l 761 972 l 761 356 q 715 147 761 229 q 591 24 669 64 q 414 -17 513 -17 z "},"V":{"ha":833,"x_min":29,"x_max":804,"o":"m 329 0 l 29 972 l 188 972 l 417 194 l 646 972 l 804 972 l 504 0 l 329 0 z "},"W":{"ha":833,"x_min":1,"x_max":832,"o":"m 135 0 l 1 972 l 144 972 l 225 265 l 344 972 l 489 972 l 608 265 l 689 972 l 832 972 l 699 0 l 528 0 l 417 688 l 306 0 l 135 0 z "},"Ẃ":{"ha":833,"x_min":1,"x_max":832,"o":"m 135 0 l 1 972 l 144 972 l 225 265 l 344 972 l 489 972 l 608 265 l 689 972 l 832 972 l 699 0 l 528 0 l 417 688 l 306 0 l 135 0 z "},"Ŵ":{"ha":833,"x_min":1,"x_max":832,"o":"m 135 0 l 1 972 l 144 972 l 225 265 l 344 972 l 489 972 l 608 265 l 689 972 l 832 972 l 699 0 l 528 0 l 417 688 l 306 0 l 135 0 z "},"Ẅ":{"ha":833,"x_min":1,"x_max":832,"o":"m 135 0 l 1 972 l 144 972 l 225 265 l 344 972 l 489 972 l 608 265 l 689 972 l 832 972 l 699 0 l 528 0 l 417 688 l 306 0 l 135 0 z "},"Ẁ":{"ha":833,"x_min":1,"x_max":832,"o":"m 135 0 l 1 972 l 144 972 l 225 265 l 344 972 l 489 972 l 608 265 l 689 972 l 832 972 l 699 0 l 528 0 l 417 688 l 306 0 l 135 0 z "},"X":{"ha":833,"x_min":40,"x_max":793,"o":"m 43 0 l 333 486 l 40 972 l 211 972 l 421 622 l 625 972 l 790 972 l 500 490 l 793 0 l 625 0 l 413 354 l 211 0 l 43 0 z "},"Y":{"ha":833,"x_min":22,"x_max":811,"o":"m 343 0 l 343 369 l 22 972 l 190 972 l 417 525 l 643 972 l 811 972 l 490 369 l 490 0 l 343 0 z "},"Ý":{"ha":833,"x_min":22,"x_max":811,"o":"m 343 0 l 343 369 l 22 972 l 190 972 l 417 525 l 643 972 l 811 972 l 490 369 l 490 0 l 343 0 z "},"Ŷ":{"ha":833,"x_min":22,"x_max":811,"o":"m 343 0 l 343 369 l 22 972 l 190 972 l 417 525 l 643 972 l 811 972 l 490 369 l 490 0 l 343 0 z "},"Ÿ":{"ha":833,"x_min":22,"x_max":811,"o":"m 343 0 l 343 369 l 22 972 l 190 972 l 417 525 l 643 972 l 811 972 l 490 369 l 490 0 l 343 0 z "},"Ỳ":{"ha":833,"x_min":22,"x_max":811,"o":"m 343 0 l 343 369 l 22 972 l 190 972 l 417 525 l 643 972 l 811 972 l 490 369 l 490 0 l 343 0 z "},"Ỹ":{"ha":833,"x_min":22,"x_max":811,"o":"m 343 0 l 343 369 l 22 972 l 190 972 l 417 525 l 643 972 l 811 972 l 490 369 l 490 0 l 343 0 z "},"Z":{"ha":833,"x_min":86,"x_max":749,"o":"m 86 0 l 86 121 l 572 840 l 93 840 l 93 972 l 743 972 l 743 851 l 257 132 l 749 132 l 749 0 l 86 0 z "},"Ź":{"ha":833,"x_min":86,"x_max":749,"o":"m 86 0 l 86 121 l 572 840 l 93 840 l 93 972 l 743 972 l 743 851 l 257 132 l 749 132 l 749 0 l 86 0 z "},"Ž":{"ha":833,"x_min":86,"x_max":749,"o":"m 86 0 l 86 121 l 572 840 l 93 840 l 93 972 l 743 972 l 743 851 l 257 132 l 749 132 l 749 0 l 86 0 z "},"Ż":{"ha":833,"x_min":86,"x_max":749,"o":"m 86 0 l 86 121 l 572 840 l 93 840 l 93 972 l 743 972 l 743 851 l 257 132 l 749 132 l 749 0 l 86 0 z "},"a":{"ha":833,"x_min":106,"x_max":715,"o":"m 354 -17 q 217 12 272 -17 q 133 88 161 40 q 106 193 106 136 q 180 351 106 294 q 390 408 254 408 l 568 408 l 568 424 q 424 579 568 579 q 323 553 364 579 q 268 471 282 528 l 121 471 q 215 642 132 579 q 424 706 297 706 q 646 631 576 706 q 715 424 715 556 l 715 0 l 590 0 l 578 101 l 568 101 q 492 18 538 53 q 354 -17 446 -17 m 382 107 q 517 162 472 107 q 567 301 563 217 l 406 301 q 294 276 326 301 q 261 204 261 250 q 294 133 261 158 q 382 107 326 107 z "},"á":{"ha":833,"x_min":106,"x_max":715,"o":"m 354 -17 q 217 12 272 -17 q 133 88 161 40 q 106 193 106 136 q 180 351 106 294 q 390 408 254 408 l 568 408 l 568 424 q 424 579 568 579 q 323 553 364 579 q 268 471 282 528 l 121 471 q 215 642 132 579 q 424 706 297 706 q 646 631 576 706 q 715 424 715 556 l 715 0 l 590 0 l 578 101 l 568 101 q 492 18 538 53 q 354 -17 446 -17 m 382 107 q 517 162 472 107 q 567 301 563 217 l 406 301 q 294 276 326 301 q 261 204 261 250 q 294 133 261 158 q 382 107 326 107 z "},"ă":{"ha":833,"x_min":106,"x_max":715,"o":"m 354 -17 q 217 12 272 -17 q 133 88 161 40 q 106 193 106 136 q 180 351 106 294 q 390 408 254 408 l 568 408 l 568 424 q 424 579 568 579 q 323 553 364 579 q 268 471 282 528 l 121 471 q 215 642 132 579 q 424 706 297 706 q 646 631 576 706 q 715 424 715 556 l 715 0 l 590 0 l 578 101 l 568 101 q 492 18 538 53 q 354 -17 446 -17 m 382 107 q 517 162 472 107 q 567 301 563 217 l 406 301 q 294 276 326 301 q 261 204 261 250 q 294 133 261 158 q 382 107 326 107 z "},"â":{"ha":833,"x_min":106,"x_max":715,"o":"m 354 -17 q 217 12 272 -17 q 133 88 161 40 q 106 193 106 136 q 180 351 106 294 q 390 408 254 408 l 568 408 l 568 424 q 424 579 568 579 q 323 553 364 579 q 268 471 282 528 l 121 471 q 215 642 132 579 q 424 706 297 706 q 646 631 576 706 q 715 424 715 556 l 715 0 l 590 0 l 578 101 l 568 101 q 492 18 538 53 q 354 -17 446 -17 m 382 107 q 517 162 472 107 q 567 301 563 217 l 406 301 q 294 276 326 301 q 261 204 261 250 q 294 133 261 158 q 382 107 326 107 z "},"ä":{"ha":833,"x_min":106,"x_max":715,"o":"m 354 -17 q 217 12 272 -17 q 133 88 161 40 q 106 193 106 136 q 180 351 106 294 q 390 408 254 408 l 568 408 l 568 424 q 424 579 568 579 q 323 553 364 579 q 268 471 282 528 l 121 471 q 215 642 132 579 q 424 706 297 706 q 646 631 576 706 q 715 424 715 556 l 715 0 l 590 0 l 578 101 l 568 101 q 492 18 538 53 q 354 -17 446 -17 m 382 107 q 517 162 472 107 q 567 301 563 217 l 406 301 q 294 276 326 301 q 261 204 261 250 q 294 133 261 158 q 382 107 326 107 z "},"à":{"ha":833,"x_min":106,"x_max":715,"o":"m 354 -17 q 217 12 272 -17 q 133 88 161 40 q 106 193 106 136 q 180 351 106 294 q 390 408 254 408 l 568 408 l 568 424 q 424 579 568 579 q 323 553 364 579 q 268 471 282 528 l 121 471 q 215 642 132 579 q 424 706 297 706 q 646 631 576 706 q 715 424 715 556 l 715 0 l 590 0 l 578 101 l 568 101 q 492 18 538 53 q 354 -17 446 -17 m 382 107 q 517 162 472 107 q 567 301 563 217 l 406 301 q 294 276 326 301 q 261 204 261 250 q 294 133 261 158 q 382 107 326 107 z "},"ā":{"ha":833,"x_min":106,"x_max":715,"o":"m 354 -17 q 217 12 272 -17 q 133 88 161 40 q 106 193 106 136 q 180 351 106 294 q 390 408 254 408 l 568 408 l 568 424 q 424 579 568 579 q 323 553 364 579 q 268 471 282 528 l 121 471 q 215 642 132 579 q 424 706 297 706 q 646 631 576 706 q 715 424 715 556 l 715 0 l 590 0 l 578 101 l 568 101 q 492 18 538 53 q 354 -17 446 -17 m 382 107 q 517 162 472 107 q 567 301 563 217 l 406 301 q 294 276 326 301 q 261 204 261 250 q 294 133 261 158 q 382 107 326 107 z "},"ą":{"ha":833,"x_min":106,"x_max":721,"o":"m 354 -17 q 217 12 272 -17 q 133 88 161 40 q 106 193 106 136 q 180 351 106 294 q 390 408 254 408 l 568 408 l 568 424 q 424 579 568 579 q 323 553 364 579 q 268 471 282 528 l 121 471 q 215 642 132 579 q 424 706 297 706 q 646 631 576 706 q 715 424 715 556 l 715 0 l 590 0 l 578 101 l 568 101 q 492 18 538 53 q 354 -17 446 -17 m 382 107 q 517 162 472 107 q 567 301 563 217 l 406 301 q 294 276 326 301 q 261 204 261 250 q 294 133 261 158 q 382 107 326 107 z "},"å":{"ha":833,"x_min":106,"x_max":715,"o":"m 354 -17 q 217 12 272 -17 q 133 88 161 40 q 106 193 106 136 q 180 351 106 294 q 390 408 254 408 l 568 408 l 568 424 q 424 579 568 579 q 323 553 364 579 q 268 471 282 528 l 121 471 q 215 642 132 579 q 424 706 297 706 q 646 631 576 706 q 715 424 715 556 l 715 0 l 590 0 l 578 101 l 568 101 q 492 18 538 53 q 354 -17 446 -17 m 382 107 q 517 162 472 107 q 567 301 563 217 l 406 301 q 294 276 326 301 q 261 204 261 250 q 294 133 261 158 q 382 107 326 107 z "},"ã":{"ha":833,"x_min":106,"x_max":715,"o":"m 354 -17 q 217 12 272 -17 q 133 88 161 40 q 106 193 106 136 q 180 351 106 294 q 390 408 254 408 l 568 408 l 568 424 q 424 579 568 579 q 323 553 364 579 q 268 471 282 528 l 121 471 q 215 642 132 579 q 424 706 297 706 q 646 631 576 706 q 715 424 715 556 l 715 0 l 590 0 l 578 101 l 568 101 q 492 18 538 53 q 354 -17 446 -17 m 382 107 q 517 162 472 107 q 567 301 563 217 l 406 301 q 294 276 326 301 q 261 204 261 250 q 294 133 261 158 q 382 107 326 107 z "},"æ":{"ha":833,"x_min":19,"x_max":822,"o":"m 213 -17 q 109 12 153 -17 q 42 87 65 40 q 19 189 19 133 q 87 358 19 296 q 276 419 154 419 l 344 419 l 344 472 q 322 553 344 526 q 261 579 299 579 q 201 556 225 579 q 174 485 176 533 l 38 485 q 103 645 42 585 q 261 706 165 706 q 359 683 318 706 q 425 619 400 660 q 494 682 453 658 q 589 706 536 706 q 766 616 710 706 q 822 378 822 526 q 822 346 822 364 q 819 311 821 328 l 486 311 q 514 165 486 215 q 583 115 542 115 q 669 217 653 115 l 806 217 q 774 98 799 151 q 702 14 749 44 q 583 -17 656 -17 q 476 18 524 -17 q 410 104 429 53 l 403 104 q 330 17 379 50 q 213 -17 281 -17 m 489 419 l 683 419 q 656 536 681 494 q 588 578 632 578 q 518 536 544 578 q 489 419 492 494 m 246 107 q 315 142 286 107 q 344 240 344 176 l 344 311 l 293 311 q 198 282 231 311 q 165 200 165 253 q 186 132 165 157 q 246 107 207 107 z "},"ǽ":{"ha":833,"x_min":19,"x_max":822,"o":"m 213 -17 q 109 12 153 -17 q 42 87 65 40 q 19 189 19 133 q 87 358 19 296 q 276 419 154 419 l 344 419 l 344 472 q 322 553 344 526 q 261 579 299 579 q 201 556 225 579 q 174 485 176 533 l 38 485 q 103 645 42 585 q 261 706 165 706 q 359 683 318 706 q 425 619 400 660 q 494 682 453 658 q 589 706 536 706 q 766 616 710 706 q 822 378 822 526 q 822 346 822 364 q 819 311 821 328 l 486 311 q 514 165 486 215 q 583 115 542 115 q 669 217 653 115 l 806 217 q 774 98 799 151 q 702 14 749 44 q 583 -17 656 -17 q 476 18 524 -17 q 410 104 429 53 l 403 104 q 330 17 379 50 q 213 -17 281 -17 m 489 419 l 683 419 q 656 536 681 494 q 588 578 632 578 q 518 536 544 578 q 489 419 492 494 m 246 107 q 315 142 286 107 q 344 240 344 176 l 344 311 l 293 311 q 198 282 231 311 q 165 200 165 253 q 186 132 165 157 q 246 107 207 107 z "},"b":{"ha":833,"x_min":99,"x_max":756,"o":"m 454 -17 q 326 15 378 -17 q 246 101 274 46 l 238 101 l 225 0 l 99 0 l 99 1000 l 246 1000 l 246 600 q 325 674 271 642 q 454 706 379 706 q 608 665 540 706 q 716 543 676 624 q 756 344 756 463 q 716 146 756 226 q 608 24 676 65 q 454 -17 540 -17 m 424 124 q 555 178 503 124 q 607 343 607 233 q 555 510 607 454 q 424 565 503 565 q 292 510 344 565 q 240 344 240 456 q 292 179 240 235 q 424 124 344 124 z "},"c":{"ha":833,"x_min":93,"x_max":743,"o":"m 426 -17 q 255 28 331 -17 q 136 153 179 72 q 93 344 93 235 q 137 535 93 454 q 256 660 181 615 q 426 706 331 706 q 640 640 558 706 q 743 458 721 574 l 589 458 q 533 538 575 508 q 425 567 490 567 q 335 542 378 567 q 267 467 293 517 q 242 344 242 418 q 267 222 242 272 q 335 147 293 172 q 425 121 378 121 q 532 150 492 121 q 589 231 572 179 l 743 231 q 635 50 715 117 q 426 -17 554 -17 z "},"ć":{"ha":833,"x_min":93,"x_max":743,"o":"m 426 -17 q 255 28 331 -17 q 136 153 179 72 q 93 344 93 235 q 137 535 93 454 q 256 660 181 615 q 426 706 331 706 q 640 640 558 706 q 743 458 721 574 l 589 458 q 533 538 575 508 q 425 567 490 567 q 335 542 378 567 q 267 467 293 517 q 242 344 242 418 q 267 222 242 272 q 335 147 293 172 q 425 121 378 121 q 532 150 492 121 q 589 231 572 179 l 743 231 q 635 50 715 117 q 426 -17 554 -17 z "},"č":{"ha":833,"x_min":93,"x_max":743,"o":"m 426 -17 q 255 28 331 -17 q 136 153 179 72 q 93 344 93 235 q 137 535 93 454 q 256 660 181 615 q 426 706 331 706 q 640 640 558 706 q 743 458 721 574 l 589 458 q 533 538 575 508 q 425 567 490 567 q 335 542 378 567 q 267 467 293 517 q 242 344 242 418 q 267 222 242 272 q 335 147 293 172 q 425 121 378 121 q 532 150 492 121 q 589 231 572 179 l 743 231 q 635 50 715 117 q 426 -17 554 -17 z "},"ç":{"ha":833,"x_min":93,"x_max":743,"o":"m 426 -17 q 255 28 331 -17 q 136 153 179 72 q 93 344 93 235 q 137 535 93 454 q 256 660 181 615 q 426 706 331 706 q 640 640 558 706 q 743 458 721 574 l 589 458 q 533 538 575 508 q 425 567 490 567 q 335 542 378 567 q 267 467 293 517 q 242 344 242 418 q 267 222 242 272 q 335 147 293 172 q 425 121 378 121 q 532 150 492 121 q 589 231 572 179 l 743 231 q 635 50 715 117 q 426 -17 554 -17 z "},"ċ":{"ha":833,"x_min":93,"x_max":743,"o":"m 426 -17 q 255 28 331 -17 q 136 153 179 72 q 93 344 93 235 q 137 535 93 454 q 256 660 181 615 q 426 706 331 706 q 640 640 558 706 q 743 458 721 574 l 589 458 q 533 538 575 508 q 425 567 490 567 q 335 542 378 567 q 267 467 293 517 q 242 344 242 418 q 267 222 242 272 q 335 147 293 172 q 425 121 378 121 q 532 150 492 121 q 589 231 572 179 l 743 231 q 635 50 715 117 q 426 -17 554 -17 z "},"d":{"ha":833,"x_min":78,"x_max":735,"o":"m 379 -17 q 225 24 293 -17 q 117 146 157 65 q 78 344 78 226 q 118 543 78 463 q 227 665 158 624 q 381 706 296 706 q 511 676 460 706 q 588 600 563 646 l 588 1000 l 735 1000 l 735 0 l 608 0 l 596 101 l 588 101 q 509 15 560 47 q 379 -17 458 -17 m 410 124 q 541 179 489 124 q 593 344 593 235 q 541 510 593 456 q 410 565 489 565 q 278 510 331 565 q 226 343 226 454 q 278 178 226 233 q 410 124 331 124 z "},"ð":{"ha":833,"x_min":69,"x_max":782,"o":"m 422 -17 q 240 31 319 -17 q 115 160 160 79 q 69 342 69 242 q 113 527 69 446 q 233 655 157 608 q 404 701 310 701 q 523 679 468 701 q 618 603 578 657 l 626 603 q 513 813 585 719 l 311 747 l 311 849 l 443 892 q 385 947 415 919 q 321 1000 356 974 l 492 1000 q 568 933 532 968 l 726 985 l 726 883 l 636 854 q 744 643 706 760 q 782 389 782 526 q 738 172 782 263 q 612 32 693 81 q 422 -17 531 -17 m 426 122 q 529 149 483 122 q 603 225 575 175 q 631 343 631 275 q 603 460 631 411 q 529 536 575 510 q 426 563 483 563 q 323 536 369 563 q 249 460 276 510 q 221 343 221 411 q 249 225 221 275 q 323 149 276 175 q 426 122 369 122 z "},"ď":{"ha":833,"x_min":11,"x_max":953,"o":"m 313 -17 q 158 24 226 -17 q 51 146 90 65 q 11 344 11 226 q 51 543 11 463 q 160 665 92 624 q 314 706 229 706 q 444 676 393 706 q 521 600 496 646 l 521 1000 l 668 1000 l 668 0 l 542 0 l 529 101 l 521 101 q 442 15 493 47 q 313 -17 392 -17 m 343 124 q 474 179 422 124 q 526 344 526 235 q 474 510 526 456 q 343 565 422 565 q 212 510 264 565 q 160 343 160 454 q 212 178 160 233 q 343 124 264 124 m 721 689 l 781 1000 l 953 1000 l 839 689 l 721 689 z "},"đ":{"ha":833,"x_min":78,"x_max":818,"o":"m 379 -17 q 225 24 293 -17 q 117 146 157 65 q 78 344 78 226 q 118 543 78 463 q 227 665 158 624 q 381 706 296 706 q 511 676 460 706 q 588 600 563 646 l 588 799 l 365 799 l 365 917 l 588 917 l 588 1000 l 735 1000 l 735 917 l 818 917 l 818 799 l 735 799 l 735 0 l 608 0 l 596 101 l 588 101 q 509 15 560 47 q 379 -17 458 -17 m 410 124 q 541 179 489 124 q 593 344 593 235 q 541 510 593 456 q 410 565 489 565 q 278 510 331 565 q 226 343 226 454 q 278 178 226 233 q 410 124 331 124 z "},"e":{"ha":833,"x_min":86,"x_max":750,"o":"m 425 -17 q 249 28 325 -17 q 129 154 172 74 q 86 342 86 235 q 128 532 86 450 q 248 660 171 614 q 426 706 325 706 q 599 660 526 706 q 710 540 671 615 q 750 375 750 465 q 750 345 750 361 q 749 310 750 329 l 231 310 q 293 165 238 214 q 424 115 349 115 q 527 142 489 115 q 583 217 565 169 l 732 217 q 628 51 707 118 q 425 -17 549 -17 m 425 578 q 304 537 357 578 q 236 422 251 496 l 603 422 q 549 535 597 492 q 425 578 500 578 z "},"é":{"ha":833,"x_min":86,"x_max":750,"o":"m 425 -17 q 249 28 325 -17 q 129 154 172 74 q 86 342 86 235 q 128 532 86 450 q 248 660 171 614 q 426 706 325 706 q 599 660 526 706 q 710 540 671 615 q 750 375 750 465 q 750 345 750 361 q 749 310 750 329 l 231 310 q 293 165 238 214 q 424 115 349 115 q 527 142 489 115 q 583 217 565 169 l 732 217 q 628 51 707 118 q 425 -17 549 -17 m 425 578 q 304 537 357 578 q 236 422 251 496 l 603 422 q 549 535 597 492 q 425 578 500 578 z "},"ĕ":{"ha":833,"x_min":86,"x_max":750,"o":"m 425 -17 q 249 28 325 -17 q 129 154 172 74 q 86 342 86 235 q 128 532 86 450 q 248 660 171 614 q 426 706 325 706 q 599 660 526 706 q 710 540 671 615 q 750 375 750 465 q 750 345 750 361 q 749 310 750 329 l 231 310 q 293 165 238 214 q 424 115 349 115 q 527 142 489 115 q 583 217 565 169 l 732 217 q 628 51 707 118 q 425 -17 549 -17 m 425 578 q 304 537 357 578 q 236 422 251 496 l 603 422 q 549 535 597 492 q 425 578 500 578 z "},"ě":{"ha":833,"x_min":86,"x_max":750,"o":"m 425 -17 q 249 28 325 -17 q 129 154 172 74 q 86 342 86 235 q 128 532 86 450 q 248 660 171 614 q 426 706 325 706 q 599 660 526 706 q 710 540 671 615 q 750 375 750 465 q 750 345 750 361 q 749 310 750 329 l 231 310 q 293 165 238 214 q 424 115 349 115 q 527 142 489 115 q 583 217 565 169 l 732 217 q 628 51 707 118 q 425 -17 549 -17 m 425 578 q 304 537 357 578 q 236 422 251 496 l 603 422 q 549 535 597 492 q 425 578 500 578 z "},"ê":{"ha":833,"x_min":86,"x_max":750,"o":"m 425 -17 q 249 28 325 -17 q 129 154 172 74 q 86 342 86 235 q 128 532 86 450 q 248 660 171 614 q 426 706 325 706 q 599 660 526 706 q 710 540 671 615 q 750 375 750 465 q 750 345 750 361 q 749 310 750 329 l 231 310 q 293 165 238 214 q 424 115 349 115 q 527 142 489 115 q 583 217 565 169 l 732 217 q 628 51 707 118 q 425 -17 549 -17 m 425 578 q 304 537 357 578 q 236 422 251 496 l 603 422 q 549 535 597 492 q 425 578 500 578 z "},"ë":{"ha":833,"x_min":86,"x_max":750,"o":"m 425 -17 q 249 28 325 -17 q 129 154 172 74 q 86 342 86 235 q 128 532 86 450 q 248 660 171 614 q 426 706 325 706 q 599 660 526 706 q 710 540 671 615 q 750 375 750 465 q 750 345 750 361 q 749 310 750 329 l 231 310 q 293 165 238 214 q 424 115 349 115 q 527 142 489 115 q 583 217 565 169 l 732 217 q 628 51 707 118 q 425 -17 549 -17 m 425 578 q 304 537 357 578 q 236 422 251 496 l 603 422 q 549 535 597 492 q 425 578 500 578 z "},"ė":{"ha":833,"x_min":86,"x_max":750,"o":"m 425 -17 q 249 28 325 -17 q 129 154 172 74 q 86 342 86 235 q 128 532 86 450 q 248 660 171 614 q 426 706 325 706 q 599 660 526 706 q 710 540 671 615 q 750 375 750 465 q 750 345 750 361 q 749 310 750 329 l 231 310 q 293 165 238 214 q 424 115 349 115 q 527 142 489 115 q 583 217 565 169 l 732 217 q 628 51 707 118 q 425 -17 549 -17 m 425 578 q 304 537 357 578 q 236 422 251 496 l 603 422 q 549 535 597 492 q 425 578 500 578 z "},"è":{"ha":833,"x_min":86,"x_max":750,"o":"m 425 -17 q 249 28 325 -17 q 129 154 172 74 q 86 342 86 235 q 128 532 86 450 q 248 660 171 614 q 426 706 325 706 q 599 660 526 706 q 710 540 671 615 q 750 375 750 465 q 750 345 750 361 q 749 310 750 329 l 231 310 q 293 165 238 214 q 424 115 349 115 q 527 142 489 115 q 583 217 565 169 l 732 217 q 628 51 707 118 q 425 -17 549 -17 m 425 578 q 304 537 357 578 q 236 422 251 496 l 603 422 q 549 535 597 492 q 425 578 500 578 z "},"ē":{"ha":833,"x_min":86,"x_max":750,"o":"m 425 -17 q 249 28 325 -17 q 129 154 172 74 q 86 342 86 235 q 128 532 86 450 q 248 660 171 614 q 426 706 325 706 q 599 660 526 706 q 710 540 671 615 q 750 375 750 465 q 750 345 750 361 q 749 310 750 329 l 231 310 q 293 165 238 214 q 424 115 349 115 q 527 142 489 115 q 583 217 565 169 l 732 217 q 628 51 707 118 q 425 -17 549 -17 m 425 578 q 304 537 357 578 q 236 422 251 496 l 603 422 q 549 535 597 492 q 425 578 500 578 z "},"ę":{"ha":833,"x_min":86,"x_max":750,"o":"m 425 -17 q 249 28 325 -17 q 129 154 172 74 q 86 342 86 235 q 128 532 86 450 q 248 660 171 614 q 426 706 325 706 q 599 660 526 706 q 710 540 671 615 q 750 375 750 465 q 750 345 750 361 q 749 310 750 329 l 231 310 q 293 165 238 214 q 424 115 349 115 q 527 142 489 115 q 583 217 565 169 l 732 217 q 628 51 707 118 q 425 -17 549 -17 m 425 578 q 304 537 357 578 q 236 422 251 496 l 603 422 q 549 535 597 492 q 425 578 500 578 z "},"ẽ":{"ha":833,"x_min":86,"x_max":750,"o":"m 425 -17 q 249 28 325 -17 q 129 154 172 74 q 86 342 86 235 q 128 532 86 450 q 248 660 171 614 q 426 706 325 706 q 599 660 526 706 q 710 540 671 615 q 750 375 750 465 q 750 345 750 361 q 749 310 750 329 l 231 310 q 293 165 238 214 q 424 115 349 115 q 527 142 489 115 q 583 217 565 169 l 732 217 q 628 51 707 118 q 425 -17 549 -17 m 425 578 q 304 537 357 578 q 236 422 251 496 l 603 422 q 549 535 597 492 q 425 578 500 578 z "},"ə":{"ha":833,"x_min":83,"x_max":747,"o":"m 407 -17 q 235 28 308 -17 q 123 149 163 74 q 83 314 83 224 q 83 345 83 329 q 85 379 83 361 l 603 379 q 540 524 596 475 q 410 574 485 574 q 308 547 346 574 q 250 472 269 521 l 101 472 q 206 638 126 571 q 408 706 285 706 q 585 660 508 706 q 704 535 661 615 q 747 347 747 454 q 705 157 747 239 q 586 29 663 75 q 407 -17 510 -17 m 408 111 q 529 152 476 111 q 597 267 582 193 l 231 267 q 285 155 236 199 q 408 111 333 111 z "},"f":{"ha":833,"x_min":96,"x_max":688,"o":"m 96 -306 l 96 -176 l 208 -176 q 278 -156 257 -176 q 300 -89 300 -136 l 300 564 l 125 564 l 125 689 l 300 689 l 300 785 q 357 950 300 900 q 519 1000 414 1000 l 688 1000 l 688 871 l 538 871 q 468 851 489 871 q 447 783 447 832 l 447 689 l 688 689 l 688 564 l 447 564 l 447 -90 q 390 -256 447 -206 q 226 -306 333 -306 l 96 -306 z "},"g":{"ha":833,"x_min":76,"x_max":767,"o":"m 401 199 q 283 219 338 199 l 249 178 q 240 138 232 157 q 276 119 247 119 l 458 119 q 653 69 579 119 q 728 -86 728 18 q 695 -205 728 -151 q 591 -290 663 -258 q 403 -322 519 -322 q 166 -267 256 -322 q 76 -103 76 -212 q 95 -31 76 -64 q 144 28 114 1 q 99 106 107 56 q 129 204 92 157 l 190 282 q 125 453 125 351 q 158 578 125 521 q 252 671 190 636 q 401 706 314 706 q 507 689 458 706 l 767 689 l 767 592 l 646 585 l 646 572 q 675 453 675 518 q 642 326 675 385 q 549 233 610 268 q 401 199 488 199 m 401 317 q 502 353 463 317 q 542 453 542 389 q 502 550 542 514 q 401 586 463 586 q 299 550 339 586 q 260 453 260 514 q 299 353 260 389 q 401 317 339 317 m 215 -92 q 269 -174 215 -147 q 403 -200 322 -200 q 539 -171 489 -200 q 589 -89 589 -142 q 553 -19 589 -44 q 431 7 517 7 l 268 7 q 215 -92 215 -35 z "},"ğ":{"ha":833,"x_min":76,"x_max":767,"o":"m 401 199 q 283 219 338 199 l 249 178 q 240 138 232 157 q 276 119 247 119 l 458 119 q 653 69 579 119 q 728 -86 728 18 q 695 -205 728 -151 q 591 -290 663 -258 q 403 -322 519 -322 q 166 -267 256 -322 q 76 -103 76 -212 q 95 -31 76 -64 q 144 28 114 1 q 99 106 107 56 q 129 204 92 157 l 190 282 q 125 453 125 351 q 158 578 125 521 q 252 671 190 636 q 401 706 314 706 q 507 689 458 706 l 767 689 l 767 592 l 646 585 l 646 572 q 675 453 675 518 q 642 326 675 385 q 549 233 610 268 q 401 199 488 199 m 401 317 q 502 353 463 317 q 542 453 542 389 q 502 550 542 514 q 401 586 463 586 q 299 550 339 586 q 260 453 260 514 q 299 353 260 389 q 401 317 339 317 m 215 -92 q 269 -174 215 -147 q 403 -200 322 -200 q 539 -171 489 -200 q 589 -89 589 -142 q 553 -19 589 -44 q 431 7 517 7 l 268 7 q 215 -92 215 -35 z "},"ģ":{"ha":833,"x_min":76,"x_max":767,"o":"m 401 199 q 283 219 338 199 l 249 178 q 240 138 232 157 q 276 119 247 119 l 458 119 q 653 69 579 119 q 728 -86 728 18 q 695 -205 728 -151 q 591 -290 663 -258 q 403 -322 519 -322 q 166 -267 256 -322 q 76 -103 76 -212 q 95 -31 76 -64 q 144 28 114 1 q 99 106 107 56 q 129 204 92 157 l 190 282 q 125 453 125 351 q 158 578 125 521 q 252 671 190 636 q 401 706 314 706 q 507 689 458 706 l 767 689 l 767 592 l 646 585 l 646 572 q 675 453 675 518 q 642 326 675 385 q 549 233 610 268 q 401 199 488 199 m 401 317 q 502 353 463 317 q 542 453 542 389 q 502 550 542 514 q 401 586 463 586 q 299 550 339 586 q 260 453 260 514 q 299 353 260 389 q 401 317 339 317 m 215 -92 q 269 -174 215 -147 q 403 -200 322 -200 q 539 -171 489 -200 q 589 -89 589 -142 q 553 -19 589 -44 q 431 7 517 7 l 268 7 q 215 -92 215 -35 m 301 783 l 435 1057 l 561 1057 l 486 783 l 301 783 z "},"ġ":{"ha":833,"x_min":76,"x_max":767,"o":"m 401 199 q 283 219 338 199 l 249 178 q 240 138 232 157 q 276 119 247 119 l 458 119 q 653 69 579 119 q 728 -86 728 18 q 695 -205 728 -151 q 591 -290 663 -258 q 403 -322 519 -322 q 166 -267 256 -322 q 76 -103 76 -212 q 95 -31 76 -64 q 144 28 114 1 q 99 106 107 56 q 129 204 92 157 l 190 282 q 125 453 125 351 q 158 578 125 521 q 252 671 190 636 q 401 706 314 706 q 507 689 458 706 l 767 689 l 767 592 l 646 585 l 646 572 q 675 453 675 518 q 642 326 675 385 q 549 233 610 268 q 401 199 488 199 m 401 317 q 502 353 463 317 q 542 453 542 389 q 502 550 542 514 q 401 586 463 586 q 299 550 339 586 q 260 453 260 514 q 299 353 260 389 q 401 317 339 317 m 215 -92 q 269 -174 215 -147 q 403 -200 322 -200 q 539 -171 489 -200 q 589 -89 589 -142 q 553 -19 589 -44 q 431 7 517 7 l 268 7 q 215 -92 215 -35 z "},"h":{"ha":833,"x_min":101,"x_max":736,"o":"m 101 0 l 101 1000 l 249 1000 l 249 586 q 338 672 276 638 q 475 706 399 706 q 669 628 603 706 q 736 407 736 551 l 736 0 l 589 0 l 589 386 q 547 519 589 472 q 432 567 506 567 q 302 515 356 567 q 249 367 249 464 l 249 0 l 101 0 z "},"i":{"ha":833,"x_min":126,"x_max":707,"o":"m 403 794 q 322 826 354 794 q 289 903 289 857 q 322 979 289 949 q 403 1010 354 1010 q 485 979 453 1010 q 518 903 518 949 q 485 826 518 857 q 403 794 453 794 m 126 0 l 126 128 l 343 128 l 343 515 q 299 561 343 561 l 146 561 l 146 689 l 325 689 q 451 649 411 689 q 490 524 490 610 l 490 128 l 707 128 l 707 0 l 126 0 z "},"ı":{"ha":833,"x_min":126,"x_max":707,"o":"m 126 0 l 126 128 l 343 128 l 343 515 q 299 561 343 561 l 146 561 l 146 689 l 325 689 q 451 649 411 689 q 490 524 490 610 l 490 128 l 707 128 l 707 0 l 126 0 z "},"í":{"ha":833,"x_min":126,"x_max":707,"o":"m 126 0 l 126 128 l 343 128 l 343 515 q 299 561 343 561 l 146 561 l 146 689 l 325 689 q 451 649 411 689 q 490 524 490 610 l 490 128 l 707 128 l 707 0 l 126 0 z "},"ĭ":{"ha":833,"x_min":126,"x_max":707,"o":"m 126 0 l 126 128 l 343 128 l 343 515 q 299 561 343 561 l 146 561 l 146 689 l 325 689 q 451 649 411 689 q 490 524 490 610 l 490 128 l 707 128 l 707 0 l 126 0 z "},"î":{"ha":833,"x_min":126,"x_max":707,"o":"m 126 0 l 126 128 l 343 128 l 343 515 q 299 561 343 561 l 146 561 l 146 689 l 325 689 q 451 649 411 689 q 490 524 490 610 l 490 128 l 707 128 l 707 0 l 126 0 z "},"ï":{"ha":833,"x_min":126,"x_max":707,"o":"m 126 0 l 126 128 l 343 128 l 343 515 q 299 561 343 561 l 146 561 l 146 689 l 325 689 q 451 649 411 689 q 490 524 490 610 l 490 128 l 707 128 l 707 0 l 126 0 z "},"ì":{"ha":833,"x_min":126,"x_max":707,"o":"m 126 0 l 126 128 l 343 128 l 343 515 q 299 561 343 561 l 146 561 l 146 689 l 325 689 q 451 649 411 689 q 490 524 490 610 l 490 128 l 707 128 l 707 0 l 126 0 z "},"ī":{"ha":833,"x_min":126,"x_max":707,"o":"m 126 0 l 126 128 l 343 128 l 343 515 q 299 561 343 561 l 146 561 l 146 689 l 325 689 q 451 649 411 689 q 490 524 490 610 l 490 128 l 707 128 l 707 0 l 126 0 z "},"į":{"ha":833,"x_min":126,"x_max":713,"o":"m 126 0 l 126 128 l 343 128 l 343 515 q 299 561 343 561 l 146 561 l 146 689 l 325 689 q 451 649 411 689 q 490 524 490 610 l 490 128 l 707 128 l 707 0 l 126 0 z "},"ĩ":{"ha":833,"x_min":126,"x_max":707,"o":"m 126 0 l 126 128 l 343 128 l 343 515 q 299 561 343 561 l 146 561 l 146 689 l 325 689 q 451 649 411 689 q 490 524 490 610 l 490 128 l 707 128 l 707 0 l 126 0 z "},"j":{"ha":833,"x_min":78,"x_max":571,"o":"m 456 794 q 374 826 407 794 q 342 903 342 857 q 374 979 342 949 q 456 1010 407 1010 q 538 979 506 1010 q 571 903 571 949 q 538 826 571 857 q 456 794 506 794 m 78 -306 l 78 -178 l 350 -178 q 396 -132 396 -178 l 396 515 q 350 561 396 561 l 181 561 l 181 689 l 378 689 q 503 649 464 689 q 543 524 543 610 l 543 -140 q 503 -266 543 -226 q 378 -306 464 -306 l 78 -306 z "},"k":{"ha":833,"x_min":136,"x_max":769,"o":"m 136 0 l 136 1000 l 283 1000 l 283 400 l 547 689 l 732 689 l 444 383 l 444 372 l 769 0 l 590 0 l 283 354 l 283 0 l 136 0 z "},"ķ":{"ha":833,"x_min":136,"x_max":769,"o":"m 136 0 l 136 1000 l 283 1000 l 283 400 l 547 689 l 732 689 l 444 383 l 444 372 l 769 0 l 590 0 l 283 354 l 283 0 l 136 0 m 260 -385 l 344 -94 l 529 -94 l 396 -385 l 260 -385 z "},"l":{"ha":833,"x_min":94,"x_max":704,"o":"m 94 0 l 94 128 l 325 128 l 325 826 q 281 872 325 872 l 114 872 l 114 1000 l 307 1000 q 430 958 388 1000 q 472 835 472 915 l 472 128 l 704 128 l 704 0 l 94 0 z "},"ĺ":{"ha":833,"x_min":94,"x_max":704,"o":"m 94 0 l 94 128 l 325 128 l 325 826 q 281 872 325 872 l 114 872 l 114 1000 l 307 1000 q 430 958 388 1000 q 472 835 472 915 l 472 128 l 704 128 l 704 0 l 94 0 z "},"ľ":{"ha":833,"x_min":94,"x_max":808,"o":"m 94 0 l 94 128 l 325 128 l 325 826 q 281 872 325 872 l 114 872 l 114 1000 l 307 1000 q 430 958 388 1000 q 472 835 472 915 l 472 128 l 704 128 l 704 0 l 94 0 m 576 682 l 636 993 l 808 993 l 694 682 l 576 682 z "},"ļ":{"ha":833,"x_min":94,"x_max":704,"o":"m 94 0 l 94 128 l 325 128 l 325 826 q 281 872 325 872 l 114 872 l 114 1000 l 307 1000 q 430 958 388 1000 q 472 835 472 915 l 472 128 l 704 128 l 704 0 l 94 0 m 249 -385 l 333 -94 l 518 -94 l 385 -385 l 249 -385 z "},"ŀ":{"ha":833,"x_min":94,"x_max":940,"o":"m 94 0 l 94 128 l 325 128 l 325 826 q 281 872 325 872 l 114 872 l 114 1000 l 307 1000 q 430 958 388 1000 q 472 835 472 915 l 472 128 l 704 128 l 704 0 l 94 0 z "},"ł":{"ha":833,"x_min":94,"x_max":704,"o":"m 94 0 l 94 128 l 325 128 l 325 419 l 178 357 l 178 485 l 325 547 l 325 826 q 281 872 325 872 l 114 872 l 114 1000 l 307 1000 q 430 958 388 1000 q 472 835 472 915 l 472 611 l 619 674 l 619 546 l 472 483 l 472 128 l 704 128 l 704 0 l 94 0 z "},"m":{"ha":833,"x_min":35,"x_max":778,"o":"m 35 0 l 35 689 l 157 689 l 169 608 l 176 608 q 232 678 194 651 q 321 706 269 706 q 408 681 371 706 q 464 608 446 656 l 469 608 q 526 678 488 650 q 622 706 565 706 q 738 656 699 706 q 778 515 778 606 l 778 0 l 636 0 l 636 486 q 619 552 636 528 q 564 576 601 576 q 502 547 526 576 q 478 465 478 518 l 478 0 l 335 0 l 335 486 q 318 552 335 528 q 264 576 301 576 q 201 547 226 576 q 176 465 176 518 l 176 0 l 35 0 z "},"n":{"ha":833,"x_min":108,"x_max":731,"o":"m 108 0 l 108 689 l 236 689 l 249 586 l 256 586 q 342 671 283 636 q 476 706 400 706 q 667 629 603 706 q 731 404 731 553 l 731 0 l 583 0 l 583 386 q 547 519 583 472 q 433 567 511 567 q 306 515 357 567 q 256 367 256 464 l 256 0 l 108 0 z "},"ń":{"ha":833,"x_min":108,"x_max":731,"o":"m 108 0 l 108 689 l 236 689 l 249 586 l 256 586 q 342 671 283 636 q 476 706 400 706 q 667 629 603 706 q 731 404 731 553 l 731 0 l 583 0 l 583 386 q 547 519 583 472 q 433 567 511 567 q 306 515 357 567 q 256 367 256 464 l 256 0 l 108 0 z "},"ň":{"ha":833,"x_min":108,"x_max":731,"o":"m 108 0 l 108 689 l 236 689 l 249 586 l 256 586 q 342 671 283 636 q 476 706 400 706 q 667 629 603 706 q 731 404 731 553 l 731 0 l 583 0 l 583 386 q 547 519 583 472 q 433 567 511 567 q 306 515 357 567 q 256 367 256 464 l 256 0 l 108 0 z "},"ņ":{"ha":833,"x_min":108,"x_max":731,"o":"m 108 0 l 108 689 l 236 689 l 249 586 l 256 586 q 342 671 283 636 q 476 706 400 706 q 667 629 603 706 q 731 404 731 553 l 731 0 l 583 0 l 583 386 q 547 519 583 472 q 433 567 511 567 q 306 515 357 567 q 256 367 256 464 l 256 0 l 108 0 m 251 -385 l 336 -94 l 521 -94 l 388 -385 l 251 -385 z "},"ñ":{"ha":833,"x_min":108,"x_max":731,"o":"m 108 0 l 108 689 l 236 689 l 249 586 l 256 586 q 342 671 283 636 q 476 706 400 706 q 667 629 603 706 q 731 404 731 553 l 731 0 l 583 0 l 583 386 q 547 519 583 472 q 433 567 511 567 q 306 515 357 567 q 256 367 256 464 l 256 0 l 108 0 z "},"o":{"ha":833,"x_min":74,"x_max":760,"o":"m 417 -17 q 240 28 318 -17 q 118 153 163 72 q 74 344 74 235 q 118 535 74 454 q 240 661 163 617 q 418 706 318 706 q 595 661 518 706 q 716 535 672 617 q 760 344 760 454 q 715 153 760 235 q 594 28 671 72 q 417 -17 517 -17 m 417 124 q 514 147 469 124 q 585 220 558 171 q 613 344 613 269 q 585 469 613 421 q 515 542 558 518 q 418 565 471 565 q 321 542 365 565 q 249 469 276 518 q 222 344 222 421 q 280 177 222 231 q 417 124 338 124 z "},"ó":{"ha":833,"x_min":74,"x_max":760,"o":"m 417 -17 q 240 28 318 -17 q 118 153 163 72 q 74 344 74 235 q 118 535 74 454 q 240 661 163 617 q 418 706 318 706 q 595 661 518 706 q 716 535 672 617 q 760 344 760 454 q 715 153 760 235 q 594 28 671 72 q 417 -17 517 -17 m 417 124 q 514 147 469 124 q 585 220 558 171 q 613 344 613 269 q 585 469 613 421 q 515 542 558 518 q 418 565 471 565 q 321 542 365 565 q 249 469 276 518 q 222 344 222 421 q 280 177 222 231 q 417 124 338 124 z "},"ŏ":{"ha":833,"x_min":74,"x_max":760,"o":"m 417 -17 q 240 28 318 -17 q 118 153 163 72 q 74 344 74 235 q 118 535 74 454 q 240 661 163 617 q 418 706 318 706 q 595 661 518 706 q 716 535 672 617 q 760 344 760 454 q 715 153 760 235 q 594 28 671 72 q 417 -17 517 -17 m 417 124 q 514 147 469 124 q 585 220 558 171 q 613 344 613 269 q 585 469 613 421 q 515 542 558 518 q 418 565 471 565 q 321 542 365 565 q 249 469 276 518 q 222 344 222 421 q 280 177 222 231 q 417 124 338 124 z "},"ô":{"ha":833,"x_min":74,"x_max":760,"o":"m 417 -17 q 240 28 318 -17 q 118 153 163 72 q 74 344 74 235 q 118 535 74 454 q 240 661 163 617 q 418 706 318 706 q 595 661 518 706 q 716 535 672 617 q 760 344 760 454 q 715 153 760 235 q 594 28 671 72 q 417 -17 517 -17 m 417 124 q 514 147 469 124 q 585 220 558 171 q 613 344 613 269 q 585 469 613 421 q 515 542 558 518 q 418 565 471 565 q 321 542 365 565 q 249 469 276 518 q 222 344 222 421 q 280 177 222 231 q 417 124 338 124 z "},"ö":{"ha":833,"x_min":74,"x_max":760,"o":"m 417 -17 q 240 28 318 -17 q 118 153 163 72 q 74 344 74 235 q 118 535 74 454 q 240 661 163 617 q 418 706 318 706 q 595 661 518 706 q 716 535 672 617 q 760 344 760 454 q 715 153 760 235 q 594 28 671 72 q 417 -17 517 -17 m 417 124 q 514 147 469 124 q 585 220 558 171 q 613 344 613 269 q 585 469 613 421 q 515 542 558 518 q 418 565 471 565 q 321 542 365 565 q 249 469 276 518 q 222 344 222 421 q 280 177 222 231 q 417 124 338 124 z "},"ò":{"ha":833,"x_min":74,"x_max":760,"o":"m 417 -17 q 240 28 318 -17 q 118 153 163 72 q 74 344 74 235 q 118 535 74 454 q 240 661 163 617 q 418 706 318 706 q 595 661 518 706 q 716 535 672 617 q 760 344 760 454 q 715 153 760 235 q 594 28 671 72 q 417 -17 517 -17 m 417 124 q 514 147 469 124 q 585 220 558 171 q 613 344 613 269 q 585 469 613 421 q 515 542 558 518 q 418 565 471 565 q 321 542 365 565 q 249 469 276 518 q 222 344 222 421 q 280 177 222 231 q 417 124 338 124 z "},"ő":{"ha":833,"x_min":74,"x_max":760,"o":"m 417 -17 q 240 28 318 -17 q 118 153 163 72 q 74 344 74 235 q 118 535 74 454 q 240 661 163 617 q 418 706 318 706 q 595 661 518 706 q 716 535 672 617 q 760 344 760 454 q 715 153 760 235 q 594 28 671 72 q 417 -17 517 -17 m 417 124 q 514 147 469 124 q 585 220 558 171 q 613 344 613 269 q 585 469 613 421 q 515 542 558 518 q 418 565 471 565 q 321 542 365 565 q 249 469 276 518 q 222 344 222 421 q 280 177 222 231 q 417 124 338 124 z "},"ō":{"ha":833,"x_min":74,"x_max":760,"o":"m 417 -17 q 240 28 318 -17 q 118 153 163 72 q 74 344 74 235 q 118 535 74 454 q 240 661 163 617 q 418 706 318 706 q 595 661 518 706 q 716 535 672 617 q 760 344 760 454 q 715 153 760 235 q 594 28 671 72 q 417 -17 517 -17 m 417 124 q 514 147 469 124 q 585 220 558 171 q 613 344 613 269 q 585 469 613 421 q 515 542 558 518 q 418 565 471 565 q 321 542 365 565 q 249 469 276 518 q 222 344 222 421 q 280 177 222 231 q 417 124 338 124 z "},"ø":{"ha":833,"x_min":56,"x_max":776,"o":"m 56 -28 l 156 99 q 95 207 117 144 q 74 344 74 269 q 118 535 74 454 q 240 661 163 617 q 418 706 318 706 q 599 658 519 706 l 644 717 l 776 717 l 678 592 q 738 483 717 546 q 760 344 760 419 q 715 153 760 235 q 594 28 671 72 q 417 -17 517 -17 q 235 32 314 -17 l 188 -28 l 56 -28 m 222 344 q 230 274 222 306 q 250 218 238 243 l 508 544 q 418 565 468 565 q 321 542 365 565 q 249 469 276 518 q 222 344 222 421 m 417 124 q 514 147 469 124 q 585 220 558 171 q 613 344 613 269 q 605 415 613 383 q 583 472 597 447 l 324 144 q 417 124 365 124 z "},"õ":{"ha":833,"x_min":74,"x_max":760,"o":"m 417 -17 q 240 28 318 -17 q 118 153 163 72 q 74 344 74 235 q 118 535 74 454 q 240 661 163 617 q 418 706 318 706 q 595 661 518 706 q 716 535 672 617 q 760 344 760 454 q 715 153 760 235 q 594 28 671 72 q 417 -17 517 -17 m 417 124 q 514 147 469 124 q 585 220 558 171 q 613 344 613 269 q 585 469 613 421 q 515 542 558 518 q 418 565 471 565 q 321 542 365 565 q 249 469 276 518 q 222 344 222 421 q 280 177 222 231 q 417 124 338 124 z "},"œ":{"ha":833,"x_min":26,"x_max":807,"o":"m 256 -17 q 88 82 150 -17 q 26 344 26 181 q 56 535 26 454 q 136 661 85 617 q 256 706 188 706 q 358 679 314 706 q 428 594 401 653 q 494 674 450 643 q 597 706 539 706 q 719 664 674 706 q 786 549 765 622 q 807 382 807 476 q 806 349 807 367 q 804 310 806 331 l 497 310 q 524 165 500 214 q 586 115 547 115 q 635 142 618 115 q 658 217 653 169 l 792 217 q 730 50 779 117 q 588 -17 681 -17 q 490 12 533 -17 q 419 90 446 40 q 350 13 389 42 q 256 -17 311 -17 m 592 578 q 532 537 557 578 q 500 422 507 496 l 672 422 q 648 539 671 500 q 592 578 625 578 m 265 117 q 338 172 313 117 q 364 344 364 226 q 339 518 364 464 q 265 572 314 572 q 193 518 218 572 q 168 344 168 464 q 193 172 168 226 q 265 117 218 117 z "},"p":{"ha":833,"x_min":96,"x_max":754,"o":"m 96 -306 l 96 689 l 224 689 l 235 583 l 243 583 q 327 670 271 635 q 461 706 383 706 q 608 665 542 706 q 715 544 675 624 q 754 344 754 464 q 713 146 754 226 q 603 24 672 65 q 447 -17 533 -17 q 319 14 371 -17 q 243 83 268 44 l 243 -306 l 96 -306 m 422 124 q 552 179 500 124 q 604 346 604 235 q 552 511 604 457 q 422 565 500 565 q 291 510 343 565 q 239 344 239 456 q 291 179 239 235 q 422 124 343 124 z "},"þ":{"ha":833,"x_min":96,"x_max":754,"o":"m 96 -306 l 96 1000 l 243 1000 l 243 583 q 327 670 271 635 q 461 706 383 706 q 608 665 542 706 q 715 544 675 624 q 754 344 754 464 q 713 146 754 226 q 603 24 672 65 q 447 -17 533 -17 q 319 14 371 -17 q 243 83 268 44 l 243 -306 l 96 -306 m 422 124 q 552 179 500 124 q 604 346 604 235 q 552 511 604 457 q 422 565 500 565 q 291 510 343 565 q 239 344 239 456 q 291 179 239 235 q 422 124 343 124 z "},"q":{"ha":833,"x_min":89,"x_max":747,"o":"m 600 -306 l 600 89 q 525 15 574 46 q 396 -17 476 -17 q 241 24 311 -17 q 130 146 171 65 q 89 344 89 226 q 130 544 89 464 q 239 665 171 624 q 386 706 307 706 q 519 674 468 706 q 600 590 571 643 l 608 590 l 621 689 l 747 689 l 747 -306 l 600 -306 m 422 124 q 553 179 501 124 q 606 344 606 235 q 553 510 606 456 q 422 565 501 565 q 291 511 343 565 q 239 346 239 457 q 291 179 239 235 q 422 124 343 124 z "},"r":{"ha":833,"x_min":107,"x_max":743,"o":"m 107 0 l 107 128 l 275 128 l 275 515 q 231 561 275 561 l 121 561 l 121 689 l 286 689 q 379 656 343 689 q 415 565 415 624 l 415 549 l 422 549 q 488 666 438 626 q 636 706 539 706 l 743 706 l 743 550 l 593 550 q 467 493 511 550 q 422 357 422 436 l 422 128 l 636 128 l 636 0 l 107 0 z "},"ŕ":{"ha":833,"x_min":107,"x_max":743,"o":"m 107 0 l 107 128 l 275 128 l 275 515 q 231 561 275 561 l 121 561 l 121 689 l 286 689 q 379 656 343 689 q 415 565 415 624 l 415 549 l 422 549 q 488 666 438 626 q 636 706 539 706 l 743 706 l 743 550 l 593 550 q 467 493 511 550 q 422 357 422 436 l 422 128 l 636 128 l 636 0 l 107 0 z "},"ř":{"ha":833,"x_min":107,"x_max":743,"o":"m 107 0 l 107 128 l 275 128 l 275 515 q 231 561 275 561 l 121 561 l 121 689 l 286 689 q 379 656 343 689 q 415 565 415 624 l 415 549 l 422 549 q 488 666 438 626 q 636 706 539 706 l 743 706 l 743 550 l 593 550 q 467 493 511 550 q 422 357 422 436 l 422 128 l 636 128 l 636 0 l 107 0 z "},"ŗ":{"ha":833,"x_min":107,"x_max":743,"o":"m 107 0 l 107 128 l 275 128 l 275 515 q 231 561 275 561 l 121 561 l 121 689 l 286 689 q 379 656 343 689 q 415 565 415 624 l 415 549 l 422 549 q 488 666 438 626 q 636 706 539 706 l 743 706 l 743 550 l 593 550 q 467 493 511 550 q 422 357 422 436 l 422 128 l 636 128 l 636 0 l 107 0 m 181 -385 l 265 -94 l 450 -94 l 317 -385 l 181 -385 z "},"s":{"ha":833,"x_min":114,"x_max":711,"o":"m 422 -17 q 206 47 286 -17 q 114 217 125 111 l 265 217 q 315 138 274 168 q 424 107 356 107 q 524 134 489 107 q 560 197 560 161 q 517 269 560 250 q 393 299 475 289 q 265 331 322 307 q 174 398 207 356 q 140 504 140 440 q 211 650 140 594 q 408 706 282 706 q 604 649 535 706 q 685 493 674 592 l 543 493 q 500 559 538 535 q 407 583 463 583 q 317 562 350 583 q 283 506 283 540 q 444 414 283 431 q 581 385 521 406 q 675 323 640 365 q 710 204 710 281 q 674 92 711 142 q 573 13 638 42 q 422 -17 508 -17 z "},"ś":{"ha":833,"x_min":114,"x_max":711,"o":"m 422 -17 q 206 47 286 -17 q 114 217 125 111 l 265 217 q 315 138 274 168 q 424 107 356 107 q 524 134 489 107 q 560 197 560 161 q 517 269 560 250 q 393 299 475 289 q 265 331 322 307 q 174 398 207 356 q 140 504 140 440 q 211 650 140 594 q 408 706 282 706 q 604 649 535 706 q 685 493 674 592 l 543 493 q 500 559 538 535 q 407 583 463 583 q 317 562 350 583 q 283 506 283 540 q 444 414 283 431 q 581 385 521 406 q 675 323 640 365 q 710 204 710 281 q 674 92 711 142 q 573 13 638 42 q 422 -17 508 -17 z "},"š":{"ha":833,"x_min":114,"x_max":711,"o":"m 422 -17 q 206 47 286 -17 q 114 217 125 111 l 265 217 q 315 138 274 168 q 424 107 356 107 q 524 134 489 107 q 560 197 560 161 q 517 269 560 250 q 393 299 475 289 q 265 331 322 307 q 174 398 207 356 q 140 504 140 440 q 211 650 140 594 q 408 706 282 706 q 604 649 535 706 q 685 493 674 592 l 543 493 q 500 559 538 535 q 407 583 463 583 q 317 562 350 583 q 283 506 283 540 q 444 414 283 431 q 581 385 521 406 q 675 323 640 365 q 710 204 710 281 q 674 92 711 142 q 573 13 638 42 q 422 -17 508 -17 z "},"ş":{"ha":833,"x_min":114,"x_max":711,"o":"m 422 -17 q 206 47 286 -17 q 114 217 125 111 l 265 217 q 315 138 274 168 q 424 107 356 107 q 524 134 489 107 q 560 197 560 161 q 517 269 560 250 q 393 299 475 289 q 265 331 322 307 q 174 398 207 356 q 140 504 140 440 q 211 650 140 594 q 408 706 282 706 q 604 649 535 706 q 685 493 674 592 l 543 493 q 500 559 538 535 q 407 583 463 583 q 317 562 350 583 q 283 506 283 540 q 444 414 283 431 q 581 385 521 406 q 675 323 640 365 q 710 204 710 281 q 674 92 711 142 q 573 13 638 42 q 422 -17 508 -17 z "},"ș":{"ha":833,"x_min":114,"x_max":711,"o":"m 422 -17 q 206 47 286 -17 q 114 217 125 111 l 265 217 q 315 138 274 168 q 424 107 356 107 q 524 134 489 107 q 560 197 560 161 q 517 269 560 250 q 393 299 475 289 q 265 331 322 307 q 174 398 207 356 q 140 504 140 440 q 211 650 140 594 q 408 706 282 706 q 604 649 535 706 q 685 493 674 592 l 543 493 q 500 559 538 535 q 407 583 463 583 q 317 562 350 583 q 283 506 283 540 q 444 414 283 431 q 581 385 521 406 q 675 323 640 365 q 710 204 710 281 q 674 92 711 142 q 573 13 638 42 q 422 -17 508 -17 m 249 -385 l 333 -94 l 518 -94 l 385 -385 l 249 -385 z "},"ß":{"ha":833,"x_min":74,"x_max":803,"o":"m 539 -17 q 351 51 418 -17 q 279 239 285 118 l 422 239 q 456 148 425 183 q 543 113 488 113 q 626 141 596 113 q 657 218 657 169 q 628 296 657 267 q 529 350 599 325 q 416 416 460 375 q 372 522 372 457 q 387 591 372 564 q 422 636 401 618 q 464 670 443 654 q 499 706 485 686 q 514 754 514 725 q 476 837 514 806 q 376 868 439 868 q 260 823 299 868 q 221 699 221 778 l 221 0 l 74 0 l 74 699 q 107 851 74 783 q 208 960 140 919 q 378 1000 276 1000 q 586 934 513 1000 q 660 768 660 868 q 639 676 660 710 q 590 621 618 642 q 542 582 563 600 q 521 538 521 564 q 547 491 521 511 q 640 446 572 471 q 763 364 722 417 q 803 228 803 311 q 772 103 803 158 q 681 15 740 47 q 539 -17 622 -17 z "},"t":{"ha":833,"x_min":97,"x_max":690,"o":"m 492 0 q 331 49 390 0 q 271 225 271 99 l 271 564 l 97 564 l 97 689 l 200 689 q 283 758 271 689 l 304 869 l 418 869 l 418 689 l 690 689 l 690 564 l 418 564 l 418 228 q 442 152 418 174 q 526 131 467 131 l 688 131 l 688 0 l 492 0 z "},"ť":{"ha":833,"x_min":97,"x_max":779,"o":"m 492 0 q 331 49 390 0 q 271 225 271 99 l 271 564 l 97 564 l 97 689 l 200 689 q 283 758 271 689 l 304 869 l 418 869 l 418 689 l 690 689 l 690 564 l 418 564 l 418 228 q 442 152 418 174 q 526 131 467 131 l 688 131 l 688 0 l 492 0 m 547 828 l 607 1139 l 779 1139 l 665 828 l 547 828 z "},"ţ":{"ha":833,"x_min":97,"x_max":690,"o":"m 492 0 q 331 49 390 0 q 271 225 271 99 l 271 564 l 97 564 l 97 689 l 200 689 q 283 758 271 689 l 304 869 l 418 869 l 418 689 l 690 689 l 690 564 l 418 564 l 418 228 q 442 152 418 174 q 526 131 467 131 l 688 131 l 688 0 l 492 0 z "},"ț":{"ha":833,"x_min":97,"x_max":690,"o":"m 492 0 q 331 49 390 0 q 271 225 271 99 l 271 564 l 97 564 l 97 689 l 200 689 q 283 758 271 689 l 304 869 l 418 869 l 418 689 l 690 689 l 690 564 l 418 564 l 418 228 q 442 152 418 174 q 526 131 467 131 l 688 131 l 688 0 l 492 0 m 289 -385 l 374 -94 l 558 -94 l 425 -385 l 289 -385 z "},"u":{"ha":833,"x_min":101,"x_max":725,"o":"m 356 -17 q 166 60 231 -17 q 101 285 101 138 l 101 689 l 249 689 l 249 303 q 285 170 249 218 q 399 122 322 122 q 526 174 475 122 q 578 322 578 225 l 578 689 l 725 689 l 725 0 l 597 0 l 585 103 l 578 103 q 492 18 550 53 q 356 -17 433 -17 z "},"ú":{"ha":833,"x_min":101,"x_max":725,"o":"m 356 -17 q 166 60 231 -17 q 101 285 101 138 l 101 689 l 249 689 l 249 303 q 285 170 249 218 q 399 122 322 122 q 526 174 475 122 q 578 322 578 225 l 578 689 l 725 689 l 725 0 l 597 0 l 585 103 l 578 103 q 492 18 550 53 q 356 -17 433 -17 z "},"ŭ":{"ha":833,"x_min":101,"x_max":725,"o":"m 356 -17 q 166 60 231 -17 q 101 285 101 138 l 101 689 l 249 689 l 249 303 q 285 170 249 218 q 399 122 322 122 q 526 174 475 122 q 578 322 578 225 l 578 689 l 725 689 l 725 0 l 597 0 l 585 103 l 578 103 q 492 18 550 53 q 356 -17 433 -17 z "},"û":{"ha":833,"x_min":101,"x_max":725,"o":"m 356 -17 q 166 60 231 -17 q 101 285 101 138 l 101 689 l 249 689 l 249 303 q 285 170 249 218 q 399 122 322 122 q 526 174 475 122 q 578 322 578 225 l 578 689 l 725 689 l 725 0 l 597 0 l 585 103 l 578 103 q 492 18 550 53 q 356 -17 433 -17 z "},"ü":{"ha":833,"x_min":101,"x_max":725,"o":"m 356 -17 q 166 60 231 -17 q 101 285 101 138 l 101 689 l 249 689 l 249 303 q 285 170 249 218 q 399 122 322 122 q 526 174 475 122 q 578 322 578 225 l 578 689 l 725 689 l 725 0 l 597 0 l 585 103 l 578 103 q 492 18 550 53 q 356 -17 433 -17 z "},"ù":{"ha":833,"x_min":101,"x_max":725,"o":"m 356 -17 q 166 60 231 -17 q 101 285 101 138 l 101 689 l 249 689 l 249 303 q 285 170 249 218 q 399 122 322 122 q 526 174 475 122 q 578 322 578 225 l 578 689 l 725 689 l 725 0 l 597 0 l 585 103 l 578 103 q 492 18 550 53 q 356 -17 433 -17 z "},"ű":{"ha":833,"x_min":101,"x_max":725,"o":"m 356 -17 q 166 60 231 -17 q 101 285 101 138 l 101 689 l 249 689 l 249 303 q 285 170 249 218 q 399 122 322 122 q 526 174 475 122 q 578 322 578 225 l 578 689 l 725 689 l 725 0 l 597 0 l 585 103 l 578 103 q 492 18 550 53 q 356 -17 433 -17 z "},"ū":{"ha":833,"x_min":101,"x_max":725,"o":"m 356 -17 q 166 60 231 -17 q 101 285 101 138 l 101 689 l 249 689 l 249 303 q 285 170 249 218 q 399 122 322 122 q 526 174 475 122 q 578 322 578 225 l 578 689 l 725 689 l 725 0 l 597 0 l 585 103 l 578 103 q 492 18 550 53 q 356 -17 433 -17 z "},"ų":{"ha":833,"x_min":101,"x_max":731,"o":"m 356 -17 q 166 60 231 -17 q 101 285 101 138 l 101 689 l 249 689 l 249 303 q 285 170 249 218 q 399 122 322 122 q 526 174 475 122 q 578 322 578 225 l 578 689 l 725 689 l 725 0 l 597 0 l 585 103 l 578 103 q 492 18 550 53 q 356 -17 433 -17 z "},"ů":{"ha":833,"x_min":101,"x_max":725,"o":"m 356 -17 q 166 60 231 -17 q 101 285 101 138 l 101 689 l 249 689 l 249 303 q 285 170 249 218 q 399 122 322 122 q 526 174 475 122 q 578 322 578 225 l 578 689 l 725 689 l 725 0 l 597 0 l 585 103 l 578 103 q 492 18 550 53 q 356 -17 433 -17 z "},"ũ":{"ha":833,"x_min":101,"x_max":725,"o":"m 356 -17 q 166 60 231 -17 q 101 285 101 138 l 101 689 l 249 689 l 249 303 q 285 170 249 218 q 399 122 322 122 q 526 174 475 122 q 578 322 578 225 l 578 689 l 725 689 l 725 0 l 597 0 l 585 103 l 578 103 q 492 18 550 53 q 356 -17 433 -17 z "},"v":{"ha":833,"x_min":29,"x_max":804,"o":"m 328 0 l 29 689 l 196 689 l 417 156 l 639 689 l 804 689 l 504 0 l 328 0 z "},"w":{"ha":833,"x_min":11,"x_max":822,"o":"m 161 0 l 11 689 l 156 689 l 239 206 l 338 689 l 496 689 l 594 206 l 678 689 l 822 689 l 672 0 l 521 0 l 417 497 l 313 0 l 161 0 z "},"ẃ":{"ha":833,"x_min":11,"x_max":822,"o":"m 161 0 l 11 689 l 156 689 l 239 206 l 338 689 l 496 689 l 594 206 l 678 689 l 822 689 l 672 0 l 521 0 l 417 497 l 313 0 l 161 0 z "},"ŵ":{"ha":833,"x_min":11,"x_max":822,"o":"m 161 0 l 11 689 l 156 689 l 239 206 l 338 689 l 496 689 l 594 206 l 678 689 l 822 689 l 672 0 l 521 0 l 417 497 l 313 0 l 161 0 z "},"ẅ":{"ha":833,"x_min":11,"x_max":822,"o":"m 161 0 l 11 689 l 156 689 l 239 206 l 338 689 l 496 689 l 594 206 l 678 689 l 822 689 l 672 0 l 521 0 l 417 497 l 313 0 l 161 0 z "},"ẁ":{"ha":833,"x_min":11,"x_max":822,"o":"m 161 0 l 11 689 l 156 689 l 239 206 l 338 689 l 496 689 l 594 206 l 678 689 l 822 689 l 672 0 l 521 0 l 417 497 l 313 0 l 161 0 z "},"x":{"ha":833,"x_min":75,"x_max":758,"o":"m 83 0 l 319 344 l 75 689 l 239 689 l 417 432 l 594 689 l 758 689 l 514 344 l 750 0 l 586 0 l 417 257 l 246 0 l 83 0 z "},"y":{"ha":833,"x_min":54,"x_max":792,"o":"m 199 -306 l 363 57 l 322 57 l 54 689 l 214 689 l 419 185 l 638 689 l 792 689 l 354 -306 l 199 -306 z "},"ý":{"ha":833,"x_min":54,"x_max":792,"o":"m 199 -306 l 363 57 l 322 57 l 54 689 l 214 689 l 419 185 l 638 689 l 792 689 l 354 -306 l 199 -306 z "},"ŷ":{"ha":833,"x_min":54,"x_max":792,"o":"m 199 -306 l 363 57 l 322 57 l 54 689 l 214 689 l 419 185 l 638 689 l 792 689 l 354 -306 l 199 -306 z "},"ÿ":{"ha":833,"x_min":54,"x_max":792,"o":"m 199 -306 l 363 57 l 322 57 l 54 689 l 214 689 l 419 185 l 638 689 l 792 689 l 354 -306 l 199 -306 z "},"ỳ":{"ha":833,"x_min":54,"x_max":792,"o":"m 199 -306 l 363 57 l 322 57 l 54 689 l 214 689 l 419 185 l 638 689 l 792 689 l 354 -306 l 199 -306 z "},"ỹ":{"ha":833,"x_min":54,"x_max":792,"o":"m 199 -306 l 363 57 l 322 57 l 54 689 l 214 689 l 419 185 l 638 689 l 792 689 l 354 -306 l 199 -306 z "},"z":{"ha":833,"x_min":131,"x_max":703,"o":"m 131 0 l 131 132 l 513 554 l 136 554 l 136 689 l 696 689 l 696 557 l 310 135 l 703 135 l 703 0 l 131 0 z "},"ź":{"ha":833,"x_min":131,"x_max":703,"o":"m 131 0 l 131 132 l 513 554 l 136 554 l 136 689 l 696 689 l 696 557 l 310 135 l 703 135 l 703 0 l 131 0 z "},"ž":{"ha":833,"x_min":131,"x_max":703,"o":"m 131 0 l 131 132 l 513 554 l 136 554 l 136 689 l 696 689 l 696 557 l 310 135 l 703 135 l 703 0 l 131 0 z "},"ż":{"ha":833,"x_min":131,"x_max":703,"o":"m 131 0 l 131 132 l 513 554 l 136 554 l 136 689 l 696 689 l 696 557 l 310 135 l 703 135 l 703 0 l 131 0 z "},"ª":{"ha":833,"x_min":165,"x_max":660,"o":"m 361 403 q 215 453 264 403 q 165 571 165 503 q 223 696 165 649 q 393 743 281 743 l 532 743 l 532 756 q 503 842 532 811 q 421 874 475 874 q 345 853 376 874 q 303 790 314 833 l 176 790 q 252 930 186 879 q 422 981 318 981 q 603 921 546 981 q 660 756 660 861 l 660 417 l 550 417 l 540 489 l 531 489 q 469 427 507 451 q 361 403 431 403 m 389 508 q 490 550 453 508 q 531 653 526 592 l 407 653 q 300 579 300 653 q 325 527 300 546 q 389 508 350 508 z "},"º":{"ha":833,"x_min":140,"x_max":694,"o":"m 417 403 q 275 439 338 403 q 176 540 213 475 q 140 692 140 606 q 176 844 140 779 q 275 945 213 910 q 418 981 338 981 q 560 945 499 981 q 658 844 622 910 q 694 692 694 779 q 658 540 694 606 q 560 439 622 475 q 417 403 497 403 m 417 524 q 522 565 478 524 q 567 692 567 607 q 522 819 567 778 q 418 860 478 860 q 313 819 358 860 q 267 692 267 778 q 312 565 267 607 q 417 524 357 524 z "},"π":{"ha":833,"x_min":35,"x_max":799,"o":"m 157 0 l 157 564 l 35 564 l 35 689 l 799 689 l 799 564 l 676 564 l 676 0 l 529 0 l 529 564 l 304 564 l 304 0 l 157 0 z "},"¹":{"ha":833,"x_min":215,"x_max":615,"o":"m 215 389 l 215 492 l 350 492 l 350 836 l 221 814 l 221 913 l 401 972 l 467 972 l 467 492 l 615 492 l 615 389 l 215 389 z "},"²":{"ha":833,"x_min":217,"x_max":625,"o":"m 217 389 l 217 482 q 358 599 296 544 q 455 703 419 653 q 490 800 490 753 q 472 856 490 835 q 418 878 453 878 q 353 851 376 878 q 331 788 331 824 l 218 788 q 278 935 221 889 q 418 982 335 982 q 560 934 510 982 q 610 804 610 886 q 574 681 610 739 q 486 574 539 624 q 383 486 433 525 l 625 486 l 625 389 l 217 389 z "},"³":{"ha":833,"x_min":203,"x_max":626,"o":"m 417 379 q 267 430 328 379 q 203 574 206 481 l 318 574 q 347 510 321 533 q 418 486 374 486 q 488 507 463 486 q 514 563 514 528 q 482 626 514 607 q 403 644 450 644 l 349 644 l 349 744 l 393 744 q 464 760 439 744 q 489 811 489 776 q 469 858 489 842 q 414 875 449 875 q 354 855 376 875 q 331 804 332 835 l 215 804 q 274 934 219 886 q 414 982 329 982 q 557 938 511 982 q 603 825 603 893 q 578 753 603 782 q 521 710 554 724 l 521 704 q 597 655 568 692 q 626 557 626 618 q 572 433 626 486 q 417 379 518 379 z "},"⁴":{"ha":833,"x_min":197,"x_max":665,"o":"m 469 389 l 469 500 l 197 500 l 197 594 l 447 972 l 586 972 l 586 606 l 665 606 l 665 500 l 586 500 l 586 389 l 469 389 m 325 606 l 476 606 l 476 846 l 325 606 z "},"⁄":{"ha":833,"x_min":146,"x_max":689,"o":"m 146 447 l 146 531 l 689 531 l 689 447 l 146 447 z "},"½":{"ha":833,"x_min":146,"x_max":689,"o":"m 276 579 l 276 669 l 367 669 l 367 850 l 281 840 l 281 929 l 415 971 l 471 971 l 471 669 l 574 669 l 574 579 l 276 579 m 146 447 l 146 531 l 689 531 l 689 447 l 146 447 m 265 0 l 265 83 q 398 185 343 138 q 453 271 453 232 q 444 296 453 286 q 415 306 435 306 q 379 292 392 306 q 367 260 367 278 l 267 260 q 314 367 271 336 q 415 397 357 397 q 522 365 485 397 q 558 276 558 332 q 533 199 558 235 q 474 134 508 163 q 410 85 440 106 l 569 85 l 569 0 l 265 0 z "},"¼":{"ha":833,"x_min":146,"x_max":689,"o":"m 276 579 l 276 669 l 367 669 l 367 850 l 281 840 l 281 929 l 415 971 l 471 971 l 471 669 l 574 669 l 574 579 l 276 579 m 146 447 l 146 531 l 689 531 l 689 447 l 146 447 m 422 0 l 422 68 l 229 68 l 229 144 l 404 390 l 526 390 l 526 151 l 564 151 l 564 68 l 526 68 l 526 0 l 422 0 m 343 151 l 429 151 l 429 281 l 343 151 z "},"¾":{"ha":833,"x_min":146,"x_max":689,"o":"m 414 574 q 303 610 346 574 q 257 708 261 646 l 356 708 q 375 674 358 686 q 415 663 392 663 q 455 672 439 663 q 471 701 471 681 q 452 733 471 724 q 406 742 433 742 l 365 742 l 365 821 l 403 821 q 441 827 425 821 q 457 853 457 833 q 444 879 457 871 q 413 888 432 888 q 376 876 389 888 q 364 850 364 865 l 265 850 q 308 943 268 908 q 413 978 347 978 q 520 947 486 978 q 554 868 554 915 q 538 822 554 842 q 497 793 521 803 l 497 790 q 550 760 529 783 q 571 692 571 736 q 531 609 571 644 q 414 574 492 574 m 146 447 l 146 531 l 689 531 l 689 447 l 146 447 m 422 0 l 422 68 l 229 68 l 229 144 l 404 390 l 526 390 l 526 151 l 564 151 l 564 68 l 526 68 l 526 0 l 422 0 m 343 151 l 429 151 l 429 281 l 343 151 z "},".":{"ha":833,"x_min":293,"x_max":540,"o":"m 417 -8 q 329 26 365 -8 q 293 108 293 60 q 329 190 293 157 q 417 224 365 224 q 505 190 469 224 q 540 108 540 157 q 505 26 540 60 q 417 -8 469 -8 z "},",":{"ha":833,"x_min":200,"x_max":526,"o":"m 200 -174 l 333 215 l 526 215 l 344 -174 l 200 -174 z "},":":{"ha":833,"x_min":293,"x_max":540,"o":"m 417 -8 q 329 26 365 -8 q 293 108 293 60 q 329 190 293 157 q 417 224 365 224 q 505 190 469 224 q 540 108 540 157 q 505 26 540 60 q 417 -8 469 -8 m 417 531 q 329 565 365 531 q 293 647 293 599 q 329 729 293 696 q 417 763 365 763 q 505 729 469 763 q 540 647 540 696 q 505 565 540 599 q 417 531 469 531 z "},";":{"ha":833,"x_min":200,"x_max":540,"o":"m 417 531 q 329 565 365 531 q 293 647 293 599 q 329 729 293 696 q 417 763 365 763 q 505 729 469 763 q 540 647 540 696 q 505 565 540 599 q 417 531 469 531 m 200 -174 l 333 215 l 526 215 l 344 -174 l 200 -174 z "},"…":{"ha":833,"x_min":15,"x_max":818,"o":"m 131 -8 q 49 26 82 -8 q 15 108 15 60 q 49 190 15 157 q 131 224 82 224 q 213 190 179 224 q 246 108 246 157 q 213 26 246 60 q 131 -8 179 -8 m 417 -8 q 335 26 368 -8 q 301 108 301 60 q 335 190 301 157 q 417 224 368 224 q 499 190 465 224 q 532 108 532 157 q 499 26 532 60 q 417 -8 465 -8 m 703 -8 q 622 26 656 -8 q 588 108 588 60 q 622 190 588 157 q 703 224 656 224 q 785 190 751 224 q 818 108 818 157 q 785 26 818 60 q 703 -8 751 -8 z "},"!":{"ha":833,"x_min":294,"x_max":542,"o":"m 347 354 l 325 972 l 508 972 l 485 354 l 347 354 m 418 -8 q 331 26 367 -8 q 294 108 294 60 q 331 190 294 157 q 418 224 367 224 q 506 190 471 224 q 542 108 542 157 q 506 26 542 60 q 418 -8 471 -8 z "},"¡":{"ha":833,"x_min":293,"x_max":540,"o":"m 417 474 q 328 507 364 474 q 293 589 293 540 q 328 672 293 638 q 417 706 364 706 q 505 672 469 706 q 540 589 540 638 q 505 507 540 540 q 417 474 469 474 m 325 -306 l 349 343 l 486 343 l 508 -306 l 325 -306 z "},"?":{"ha":833,"x_min":92,"x_max":717,"o":"m 292 306 l 283 519 l 336 519 q 513 563 453 519 q 574 700 574 607 q 528 814 574 771 q 404 857 483 857 q 283 816 329 857 q 231 706 238 775 l 92 706 q 132 853 94 789 q 239 953 169 917 q 404 989 308 989 q 635 912 553 989 q 717 703 717 835 q 675 548 717 610 q 566 453 633 486 q 422 414 499 421 l 418 306 l 292 306 m 351 -8 q 264 26 300 -8 q 228 108 228 60 q 264 190 228 157 q 351 224 300 224 q 440 190 404 224 q 475 108 475 157 q 440 26 475 60 q 351 -8 404 -8 z "},"¿":{"ha":833,"x_min":92,"x_max":717,"o":"m 457 474 q 369 507 406 474 q 333 589 333 540 q 369 672 333 638 q 457 706 406 706 q 545 672 510 706 q 581 589 581 638 q 545 507 581 540 q 457 474 510 474 m 404 -322 q 174 -244 257 -322 q 92 -36 92 -167 q 133 119 92 58 q 242 213 175 181 q 386 253 310 246 l 390 392 l 515 392 l 525 147 l 472 147 q 295 103 356 147 q 235 -33 235 60 q 280 -147 235 -104 q 404 -190 325 -190 q 526 -149 479 -190 q 578 -39 572 -107 l 717 -39 q 677 -185 715 -121 q 569 -286 639 -250 q 404 -322 500 -322 z "},"·":{"ha":833,"x_min":293,"x_max":540,"o":"m 417 371 q 329 405 365 371 q 293 488 293 439 q 329 569 293 536 q 417 603 365 603 q 505 569 469 603 q 540 488 540 536 q 505 405 540 439 q 417 371 469 371 z "},"•":{"ha":833,"x_min":226,"x_max":607,"o":"m 417 296 q 321 322 364 296 q 252 390 278 347 q 226 486 226 433 q 252 582 226 539 q 321 651 278 625 q 417 676 364 676 q 513 651 469 676 q 581 582 556 625 q 607 486 607 539 q 581 390 607 433 q 513 322 556 347 q 417 296 469 296 z "},"*":{"ha":833,"x_min":85,"x_max":750,"o":"m 343 140 l 379 422 l 149 260 l 85 376 l 340 486 l 85 596 l 149 713 l 379 550 l 343 832 l 492 832 l 456 550 l 686 713 l 750 596 l 493 486 l 750 376 l 686 260 l 456 422 l 492 140 l 343 140 z "},"#":{"ha":833,"x_min":17,"x_max":817,"o":"m 107 0 l 147 258 l 17 258 l 17 386 l 167 386 l 197 586 l 71 586 l 71 714 l 217 714 l 257 972 l 394 972 l 354 714 l 549 714 l 589 972 l 726 972 l 686 714 l 817 714 l 817 586 l 667 586 l 636 386 l 763 386 l 763 258 l 617 258 l 576 0 l 439 0 l 479 258 l 285 258 l 244 0 l 107 0 m 304 386 l 499 386 l 529 586 l 335 586 l 304 386 z "},"/":{"ha":833,"x_min":101,"x_max":732,"o":"m 101 -125 l 582 1056 l 732 1056 l 250 -125 l 101 -125 z "},"\\":{"ha":833,"x_min":101,"x_max":732,"o":"m 583 -125 l 101 1056 l 251 1056 l 732 -125 l 583 -125 z "},"(":{"ha":833,"x_min":200,"x_max":615,"o":"m 465 -257 q 331 -74 392 -174 q 235 150 271 25 q 200 435 200 275 q 235 720 200 596 q 331 944 271 844 q 465 1126 392 1043 l 615 1126 l 615 1108 q 475 916 535 1015 q 382 699 415 817 q 349 435 349 582 q 382 171 349 289 q 475 -47 415 53 q 615 -239 535 -146 l 615 -257 l 465 -257 z "},")":{"ha":833,"x_min":218,"x_max":633,"o":"m 218 -257 l 218 -239 q 358 -47 299 -146 q 451 171 418 53 q 485 435 485 289 q 451 699 485 582 q 358 916 418 817 q 218 1108 299 1015 l 218 1126 l 368 1126 q 502 944 442 1043 q 598 720 563 844 q 633 435 633 596 q 598 150 633 275 q 502 -74 563 25 q 368 -257 442 -174 l 218 -257 z "},"{":{"ha":833,"x_min":149,"x_max":688,"o":"m 546 -257 q 379 -203 442 -257 q 317 -40 317 -149 q 324 54 317 13 q 340 140 332 96 q 347 243 347 185 q 316 333 347 297 q 211 369 285 369 l 149 369 l 149 500 l 211 500 q 316 536 285 500 q 347 626 347 572 q 340 730 347 686 q 324 816 332 774 q 317 911 317 858 q 379 1072 317 1018 q 546 1126 442 1126 l 688 1126 l 688 997 l 568 997 q 487 972 514 997 q 460 890 460 947 q 467 806 460 844 q 481 725 474 767 q 488 628 488 683 q 456 505 488 554 q 372 439 425 456 l 372 431 q 456 365 425 414 q 488 242 488 315 q 481 144 488 186 q 467 65 474 103 q 460 -21 460 26 q 487 -102 460 -76 q 568 -128 514 -128 l 688 -128 l 688 -257 l 546 -257 z "},"}":{"ha":833,"x_min":146,"x_max":685,"o":"m 146 -257 l 146 -128 l 265 -128 q 347 -102 319 -128 q 374 -21 374 -76 q 367 65 374 26 q 353 144 360 103 q 346 242 346 186 q 378 365 346 315 q 461 431 410 414 l 461 439 q 378 505 410 456 q 346 628 346 554 q 353 725 346 683 q 367 806 360 767 q 374 890 374 844 q 347 972 374 947 q 265 997 319 997 l 146 997 l 146 1126 l 288 1126 q 454 1072 392 1126 q 517 911 517 1018 q 509 816 517 858 q 494 730 501 774 q 486 626 486 686 q 517 536 486 572 q 622 500 549 500 l 685 500 l 685 369 l 622 369 q 517 333 549 369 q 486 243 486 297 q 494 140 486 185 q 509 54 501 96 q 517 -40 517 13 q 454 -203 517 -149 q 288 -257 392 -257 l 146 -257 z "},"[":{"ha":833,"x_min":225,"x_max":603,"o":"m 383 -257 q 266 -216 307 -257 q 225 -99 225 -175 l 225 968 q 266 1085 225 1044 q 383 1126 307 1126 l 603 1126 l 603 997 l 408 997 q 364 953 364 997 l 364 -81 q 408 -125 364 -125 l 603 -125 l 603 -257 l 383 -257 z "},"]":{"ha":833,"x_min":231,"x_max":608,"o":"m 231 -257 l 231 -125 l 425 -125 q 469 -81 469 -125 l 469 953 q 425 997 469 997 l 231 997 l 231 1126 l 450 1126 q 567 1085 526 1126 q 608 968 608 1044 l 608 -99 q 567 -216 608 -175 q 450 -257 526 -257 l 231 -257 z "},"-":{"ha":833,"x_min":178,"x_max":656,"o":"m 178 424 l 178 549 l 656 549 l 656 424 l 178 424 z "},"­":{"ha":833,"x_min":178,"x_max":656,"o":"m 178 424 l 178 549 l 656 549 l 656 424 l 178 424 z "},"–":{"ha":833,"x_min":122,"x_max":711,"o":"m 122 424 l 122 549 l 711 549 l 711 424 l 122 424 z "},"—":{"ha":833,"x_min":0,"x_max":833,"o":"m 0 424 l 0 549 l 833 549 l 833 424 l 0 424 z "},"_":{"ha":833,"x_min":94,"x_max":739,"o":"m 94 -132 l 94 0 l 739 0 l 739 -132 l 94 -132 z "},"‚":{"ha":833,"x_min":297,"x_max":581,"o":"m 297 -212 l 385 197 l 581 197 l 429 -212 l 297 -212 z "},"„":{"ha":833,"x_min":110,"x_max":718,"o":"m 110 -212 l 197 197 l 393 197 l 242 -212 l 110 -212 m 435 -212 l 522 197 l 718 197 l 567 -212 l 435 -212 z "},"“":{"ha":833,"x_min":97,"x_max":706,"o":"m 97 563 l 249 972 l 381 972 l 293 563 l 97 563 m 422 563 l 574 972 l 706 972 l 618 563 l 422 563 z "},"”":{"ha":833,"x_min":110,"x_max":718,"o":"m 110 563 l 197 972 l 393 972 l 242 563 l 110 563 m 435 563 l 522 972 l 718 972 l 567 563 l 435 563 z "},"‘":{"ha":833,"x_min":253,"x_max":536,"o":"m 253 563 l 404 972 l 536 972 l 449 563 l 253 563 z "},"’":{"ha":833,"x_min":297,"x_max":581,"o":"m 297 563 l 385 972 l 581 972 l 429 563 l 297 563 z "},"«":{"ha":833,"x_min":118,"x_max":708,"o":"m 557 131 l 389 410 l 557 689 l 708 689 l 549 414 l 549 406 l 708 131 l 557 131 m 286 131 l 118 410 l 286 689 l 438 689 l 278 414 l 278 406 l 438 131 l 286 131 z "},"»":{"ha":833,"x_min":125,"x_max":715,"o":"m 396 131 l 556 406 l 556 414 l 396 689 l 547 689 l 715 410 l 547 131 l 396 131 m 125 131 l 285 406 l 285 414 l 125 689 l 276 689 l 444 410 l 276 131 l 125 131 z "},"‹":{"ha":833,"x_min":264,"x_max":583,"o":"m 432 131 l 264 410 l 432 689 l 583 689 l 424 414 l 424 406 l 583 131 l 432 131 z "},"›":{"ha":833,"x_min":250,"x_max":569,"o":"m 250 131 l 410 406 l 410 414 l 250 689 l 401 689 l 569 410 l 401 131 l 250 131 z "},"\"":{"ha":833,"x_min":176,"x_max":657,"o":"m 176 526 l 176 972 l 340 972 l 340 526 l 176 526 m 493 526 l 493 972 l 657 972 l 657 526 l 493 526 z "},"'":{"ha":833,"x_min":335,"x_max":499,"o":"m 335 526 l 335 972 l 499 972 l 499 526 l 335 526 z "}," ":{"ha":833,"x_min":0,"x_max":0,"o":""}," ":{"ha":833,"x_min":0,"x_max":0,"o":""},"\r":{"ha":833,"x_min":0,"x_max":0,"o":""},"¢":{"ha":833,"x_min":96,"x_max":744,"o":"m 381 0 l 381 128 q 232 185 296 139 q 132 309 168 232 q 96 486 96 386 q 133 663 96 586 q 233 786 169 739 q 381 844 297 833 l 381 972 l 476 972 l 476 844 q 656 769 588 833 q 744 600 725 706 l 592 600 q 476 703 569 683 l 476 267 q 549 304 521 276 q 592 372 578 332 l 744 372 q 652 205 719 269 q 476 128 585 140 l 476 0 l 381 0 m 244 486 q 284 340 244 394 q 381 269 324 285 l 381 701 q 284 632 324 686 q 244 486 244 578 z "},"¤":{"ha":833,"x_min":126,"x_max":707,"o":"m 199 122 l 126 194 l 213 281 q 179 413 179 339 q 214 543 179 486 l 126 631 l 199 703 l 283 618 q 417 656 343 656 q 549 617 490 656 l 635 703 l 707 631 l 619 543 q 654 413 654 485 q 619 282 654 340 l 707 194 l 635 122 l 549 208 q 417 169 490 169 q 283 207 342 169 l 199 122 m 417 272 q 478 288 449 272 q 528 335 508 304 q 549 413 549 367 q 507 517 549 482 q 417 553 465 553 q 325 517 365 553 q 285 413 285 482 q 325 308 285 343 q 417 272 365 272 z "},"$":{"ha":833,"x_min":54,"x_max":769,"o":"m 367 -121 l 367 -14 q 141 85 226 1 q 54 301 56 168 l 208 301 q 251 185 211 235 q 367 121 292 136 l 367 447 q 347 453 358 450 q 149 560 211 492 q 86 729 86 628 q 160 905 86 835 q 367 986 235 975 l 367 1099 l 464 1099 l 464 988 q 670 902 593 975 q 750 713 747 829 l 594 713 q 560 797 593 757 q 464 851 526 838 l 464 560 q 490 553 476 557 q 638 495 575 531 q 735 404 700 460 q 769 267 769 349 q 733 131 769 192 q 628 31 696 69 q 464 -15 560 -8 l 464 -121 l 367 -121 m 239 735 q 269 654 239 688 q 367 593 300 621 l 367 854 q 274 813 308 844 q 239 735 239 782 m 614 257 q 578 351 614 315 q 464 417 543 388 l 464 118 q 576 164 538 126 q 614 257 614 201 z "},"€":{"ha":833,"x_min":4,"x_max":790,"o":"m 4 331 l 4 428 l 92 428 q 90 485 90 456 q 92 543 90 514 l 4 543 l 4 642 l 104 642 q 224 895 133 801 q 458 989 315 989 q 689 911 603 989 q 790 708 775 833 l 635 708 q 576 812 621 774 q 457 850 531 850 q 328 796 379 850 q 256 642 278 742 l 511 642 l 511 543 l 242 543 q 240 485 240 515 q 242 428 240 456 l 511 428 l 511 331 l 256 331 q 328 176 276 231 q 456 122 379 122 q 575 159 532 122 q 635 256 618 196 l 790 256 q 682 58 764 132 q 456 -17 600 -17 q 222 77 311 -17 q 103 331 132 171 l 4 331 z "},"ƒ":{"ha":833,"x_min":25,"x_max":796,"o":"m 25 -306 l 25 -176 l 118 -176 q 191 -156 167 -176 q 224 -89 215 -136 l 340 564 l 189 564 l 189 689 l 363 689 l 379 785 q 460 950 400 900 q 633 1000 521 1000 l 796 1000 l 796 871 l 633 871 q 560 851 585 871 q 526 783 535 832 l 510 689 l 750 689 l 750 564 l 488 564 l 371 -90 q 293 -256 350 -206 q 117 -306 236 -306 l 25 -306 z "},"₽":{"ha":833,"x_min":43,"x_max":794,"o":"m 165 0 l 165 163 l 43 163 l 43 269 l 165 269 l 165 972 l 469 972 q 653 934 581 972 q 760 829 725 896 q 794 676 794 763 q 760 524 794 590 q 653 419 725 457 q 469 381 581 381 l 313 381 l 313 269 l 574 269 l 574 163 l 313 163 l 313 0 l 165 0 m 313 513 l 463 513 q 601 557 557 513 q 644 676 644 601 q 601 795 644 750 q 463 840 557 840 l 313 840 l 313 513 z "},"£":{"ha":833,"x_min":56,"x_max":754,"o":"m 99 0 l 99 89 q 183 205 151 146 q 214 344 214 264 q 208 401 214 372 l 56 401 l 56 508 l 175 508 q 144 597 158 551 q 131 699 131 643 q 170 853 131 788 q 280 953 210 918 q 442 989 350 989 q 615 951 547 989 q 717 847 683 913 q 753 696 751 781 l 614 696 q 567 816 610 768 q 442 864 524 864 q 324 823 375 864 q 272 693 272 782 q 287 601 272 647 q 318 508 301 554 l 576 508 l 576 401 l 349 401 q 353 349 353 374 q 333 235 353 288 q 268 135 313 183 l 268 126 l 754 126 l 754 0 l 99 0 z "},"¥":{"ha":833,"x_min":22,"x_max":811,"o":"m 90 211 l 90 324 l 343 324 l 343 369 l 311 431 l 90 431 l 90 543 l 250 543 l 22 972 l 190 972 l 417 525 l 643 972 l 811 972 l 583 543 l 743 543 l 743 431 l 522 431 l 490 369 l 490 324 l 743 324 l 743 211 l 490 211 l 490 0 l 343 0 l 343 211 l 90 211 z "},"∕":{"ha":833,"x_min":101,"x_max":732,"o":"m 101 -125 l 582 1056 l 732 1056 l 250 -125 l 101 -125 z "},"+":{"ha":833,"x_min":94,"x_max":739,"o":"m 350 164 l 350 419 l 94 419 l 94 553 l 350 553 l 350 808 l 483 808 l 483 553 l 739 553 l 739 419 l 483 419 l 483 164 l 350 164 z "},"−":{"ha":833,"x_min":94,"x_max":739,"o":"m 94 419 l 94 553 l 739 553 l 739 419 l 94 419 z "},"×":{"ha":833,"x_min":103,"x_max":731,"o":"m 196 172 l 103 265 l 324 486 l 103 707 l 196 800 l 417 579 l 638 800 l 731 707 l 510 486 l 731 265 l 638 172 l 417 393 l 196 172 z "},"÷":{"ha":833,"x_min":94,"x_max":739,"o":"m 94 419 l 94 553 l 739 553 l 739 419 l 94 419 m 417 75 q 329 109 365 75 q 293 192 293 143 q 329 274 293 240 q 417 307 365 307 q 505 274 469 307 q 540 192 540 240 q 505 109 540 143 q 417 75 469 75 m 417 665 q 329 699 365 665 q 293 782 293 733 q 329 864 293 831 q 417 897 365 897 q 505 864 469 897 q 540 782 540 831 q 505 699 540 733 q 417 665 469 665 z "},"=":{"ha":833,"x_min":94,"x_max":739,"o":"m 94 594 l 94 726 l 739 726 l 739 594 l 94 594 m 94 246 l 94 378 l 739 378 l 739 246 l 94 246 z "},"≠":{"ha":833,"x_min":94,"x_max":739,"o":"m 146 56 l 235 246 l 94 246 l 94 378 l 296 378 l 397 594 l 94 594 l 94 726 l 458 726 l 547 918 l 688 918 l 599 726 l 739 726 l 739 594 l 538 594 l 436 378 l 739 378 l 739 246 l 375 246 l 286 56 l 146 56 z "},">":{"ha":833,"x_min":136,"x_max":703,"o":"m 136 107 l 503 481 l 503 492 l 136 864 l 333 864 l 703 488 l 333 107 l 136 107 z "},"<":{"ha":833,"x_min":131,"x_max":697,"o":"m 500 107 l 131 488 l 500 864 l 697 864 l 331 492 l 331 481 l 697 107 l 500 107 z "},"≥":{"ha":833,"x_min":94,"x_max":739,"o":"m 129 218 l 492 482 l 492 493 l 129 756 l 353 756 l 704 489 l 353 218 l 129 218 m 94 0 l 94 133 l 739 133 l 739 0 l 94 0 z "},"≤":{"ha":833,"x_min":94,"x_max":739,"o":"m 481 218 l 129 489 l 481 756 l 704 756 l 342 493 l 342 482 l 704 218 l 481 218 m 94 0 l 94 133 l 739 133 l 739 0 l 94 0 z "},"±":{"ha":833,"x_min":94,"x_max":739,"o":"m 350 242 l 350 419 l 94 419 l 94 553 l 350 553 l 350 731 l 483 731 l 483 553 l 739 553 l 739 419 l 483 419 l 483 242 l 350 242 m 94 0 l 94 133 l 739 133 l 739 0 l 94 0 z "},"≈":{"ha":833,"x_min":89,"x_max":744,"o":"m 536 543 q 463 556 496 543 q 403 586 431 569 q 349 616 375 603 q 294 629 322 629 q 238 606 260 629 q 211 542 217 582 l 89 542 q 155 707 97 654 q 297 760 213 760 q 370 747 338 760 q 431 717 403 733 q 485 687 458 700 q 539 674 511 674 q 595 698 574 674 q 622 763 617 722 l 744 763 q 678 596 736 649 q 536 543 621 543 m 536 224 q 463 237 496 224 q 403 267 431 250 q 349 297 375 283 q 294 310 322 310 q 238 286 260 310 q 211 222 217 263 l 89 222 q 155 388 97 335 q 297 440 213 440 q 370 427 338 440 q 431 397 403 414 q 485 367 458 381 q 539 354 511 354 q 595 378 574 354 q 622 443 617 403 l 744 443 q 678 276 736 329 q 536 224 621 224 z "},"~":{"ha":833,"x_min":89,"x_max":744,"o":"m 536 335 q 463 348 496 335 q 403 378 431 361 q 349 408 375 394 q 294 421 322 421 q 238 397 260 421 q 211 333 217 374 l 89 333 q 155 499 97 446 q 297 551 213 551 q 370 538 338 551 q 431 508 403 525 q 485 478 458 492 q 539 465 511 465 q 595 490 574 465 q 622 554 617 514 l 744 554 q 678 388 736 440 q 536 335 621 335 z "},"¬":{"ha":833,"x_min":94,"x_max":739,"o":"m 607 164 l 607 419 l 94 419 l 94 553 l 739 553 l 739 164 l 607 164 z "},"^":{"ha":833,"x_min":54,"x_max":779,"o":"m 54 503 l 346 972 l 488 972 l 779 503 l 628 503 l 421 839 l 413 839 l 206 503 l 54 503 z "},"∞":{"ha":833,"x_min":17,"x_max":817,"o":"m 217 201 q 74 253 132 201 q 17 400 17 306 q 76 545 17 493 q 217 597 135 597 q 331 564 286 597 q 411 486 376 531 q 496 566 443 535 q 617 597 549 597 q 759 545 701 597 q 817 400 817 493 q 757 254 817 307 q 611 201 697 201 q 501 233 546 201 q 419 308 456 265 q 336 231 388 261 q 217 201 285 201 m 126 400 q 153 332 126 357 q 221 307 181 307 q 299 331 265 307 q 354 394 332 356 q 291 464 324 435 q 215 493 258 493 q 153 469 179 493 q 126 400 126 444 m 613 493 q 534 466 569 492 q 475 399 499 440 q 538 334 504 361 q 618 307 571 307 q 682 332 657 307 q 707 400 707 357 q 681 469 707 444 q 613 493 656 494 z "},"∫":{"ha":833,"x_min":63,"x_max":771,"o":"m 63 -306 l 63 -176 l 160 -176 q 233 -156 208 -176 q 265 -89 257 -136 l 422 785 q 503 950 443 900 q 675 1000 563 1000 l 771 1000 l 771 871 l 675 871 q 601 851 626 871 q 569 783 576 832 l 413 -90 q 335 -256 392 -206 q 158 -306 278 -306 l 63 -306 z "},"Ω":{"ha":833,"x_min":35,"x_max":796,"o":"m 54 0 l 54 117 l 244 117 l 244 158 q 140 258 188 197 q 63 399 92 319 q 35 576 35 479 q 85 794 35 701 q 221 938 135 886 q 415 989 307 989 q 610 938 525 989 q 746 794 696 886 q 796 576 796 701 q 735 324 796 431 q 588 158 674 217 l 588 117 l 778 117 l 778 0 l 456 0 l 456 219 q 593 359 540 276 q 646 581 646 442 q 582 777 646 704 q 415 850 518 850 q 249 777 314 850 q 185 581 185 704 q 209 422 185 489 q 277 307 233 356 q 376 219 321 258 l 376 0 l 54 0 z "},"∆":{"ha":833,"x_min":58,"x_max":775,"o":"m 58 0 l 58 124 l 329 972 l 504 972 l 775 124 l 775 0 l 58 0 m 214 132 l 619 132 l 421 783 l 413 783 l 214 132 z "},"∏":{"ha":833,"x_min":35,"x_max":799,"o":"m 133 0 l 133 840 l 35 840 l 35 972 l 799 972 l 799 840 l 700 840 l 700 0 l 553 0 l 553 840 l 281 840 l 281 0 l 133 0 z "},"∑":{"ha":833,"x_min":88,"x_max":736,"o":"m 88 -139 l 88 10 l 431 417 l 97 833 l 97 972 l 713 972 l 713 847 l 271 847 l 565 457 l 565 374 l 250 -14 l 736 -14 l 736 -139 l 88 -139 z "},"√":{"ha":833,"x_min":29,"x_max":819,"o":"m 228 0 l 29 515 l 196 515 l 317 168 l 590 972 l 819 972 l 819 847 l 699 847 l 401 0 l 228 0 z "},"µ":{"ha":833,"x_min":101,"x_max":725,"o":"m 101 -306 l 101 689 l 249 689 l 249 303 q 285 170 249 218 q 399 122 322 122 q 526 174 475 122 q 578 322 578 225 l 578 689 l 725 689 l 725 0 l 597 0 l 585 103 l 578 103 q 497 18 550 53 q 378 -17 444 -17 q 304 -5 339 -17 q 249 29 269 7 l 249 -306 l 101 -306 z "},"∂":{"ha":833,"x_min":69,"x_max":776,"o":"m 376 -17 q 212 26 281 -17 q 106 142 143 68 q 69 313 69 217 q 94 457 69 388 q 167 582 119 526 q 279 669 214 638 q 425 701 344 701 q 629 604 556 701 l 639 604 q 547 769 615 697 q 378 881 478 842 l 446 1000 q 685 810 594 944 q 776 468 776 676 q 749 285 776 372 q 670 129 722 197 q 544 22 618 61 q 376 -17 469 -17 m 393 122 q 505 160 453 122 q 590 272 557 199 q 628 447 624 344 q 550 533 594 503 q 439 563 506 563 q 322 530 371 563 q 248 442 274 497 q 222 318 222 386 q 270 176 222 229 q 393 122 318 122 z "},"%":{"ha":833,"x_min":22,"x_max":811,"o":"m 231 558 q 82 617 140 558 q 24 774 24 675 q 82 931 24 872 q 231 989 140 989 q 379 931 321 989 q 438 774 438 872 q 379 617 438 675 q 231 558 321 558 m 231 656 q 301 687 271 656 q 332 774 332 718 q 301 861 332 831 q 231 892 271 892 q 160 861 190 892 q 129 774 129 831 q 160 687 129 718 q 231 656 190 656 m 99 82 l 22 157 l 735 890 l 811 815 l 99 82 m 603 -17 q 454 42 513 -17 q 396 199 396 100 q 454 356 396 297 q 603 414 513 414 q 751 356 693 414 q 810 199 810 297 q 751 42 810 100 q 603 -17 693 -17 m 603 81 q 674 112 643 81 q 704 199 704 143 q 674 286 704 256 q 603 317 643 317 q 532 286 563 317 q 501 199 501 256 q 532 112 501 143 q 603 81 563 81 z "},"‰":{"ha":833,"x_min":14,"x_max":826,"o":"m 231 558 q 82 617 140 558 q 24 774 24 675 q 82 931 24 872 q 231 989 140 989 q 379 931 321 989 q 438 774 438 872 q 379 617 438 675 q 231 558 321 558 m 231 656 q 301 687 271 656 q 332 774 332 718 q 301 861 332 831 q 231 892 271 892 q 160 861 190 892 q 129 774 129 831 q 160 687 129 718 q 231 656 190 656 m 54 308 l 14 393 l 719 739 l 761 654 l 54 308 m 381 -17 q 249 42 300 -17 q 197 199 197 100 q 249 356 197 297 q 381 414 300 414 q 455 397 422 414 q 511 350 488 379 q 568 397 535 379 q 643 414 601 414 q 775 356 724 414 q 826 199 826 297 q 775 42 826 100 q 643 -17 724 -17 q 568 1 601 -17 q 511 47 535 18 q 455 1 488 18 q 381 -17 422 -17 m 381 81 q 437 112 415 81 q 458 199 458 143 q 437 286 458 256 q 381 317 415 317 q 324 286 346 317 q 303 199 303 256 q 324 112 303 143 q 381 81 346 81 m 643 81 q 699 112 676 81 q 721 199 721 143 q 699 286 721 256 q 643 317 676 317 q 586 286 608 317 q 564 199 564 256 q 586 112 564 143 q 643 81 608 81 z "},"◊":{"ha":833,"x_min":43,"x_max":790,"o":"m 329 0 l 43 486 l 329 972 l 504 972 l 790 486 l 504 0 l 329 0 m 413 135 l 421 135 l 628 486 l 421 838 l 413 838 l 206 486 l 413 135 z "},"@":{"ha":833,"x_min":53,"x_max":778,"o":"m 518 -131 q 259 -60 363 -131 q 104 135 156 10 q 53 421 53 260 q 87 669 53 565 q 179 841 121 774 q 311 940 238 908 q 463 972 385 972 q 693 900 608 972 q 778 693 778 828 l 778 149 l 672 149 l 661 215 l 656 215 q 599 158 635 181 q 511 136 564 136 q 340 211 408 136 q 272 422 272 286 q 340 632 272 558 q 513 706 407 706 q 600 688 565 706 q 656 643 635 671 l 656 693 q 603 815 656 771 q 463 860 550 860 q 327 817 392 860 q 222 678 263 775 q 181 421 181 582 q 217 203 181 303 q 329 42 254 103 q 518 -18 404 -18 l 715 -18 l 715 -131 l 518 -131 m 525 240 q 619 284 582 240 q 656 421 656 328 q 619 558 656 515 q 525 601 582 601 q 432 558 469 601 q 394 421 394 515 q 432 284 394 328 q 525 240 469 240 z "},"&":{"ha":833,"x_min":36,"x_max":822,"o":"m 342 -15 q 120 65 204 -15 q 36 283 36 144 q 81 441 36 369 q 208 561 125 513 q 140 751 140 661 q 170 872 140 818 q 258 957 200 925 q 399 989 317 989 q 587 923 521 989 q 653 758 653 857 l 511 758 q 477 835 510 807 q 397 863 444 863 q 314 832 344 863 q 283 753 283 801 q 306 669 283 711 q 371 574 329 626 l 567 325 l 649 504 l 801 504 l 671 226 q 661 206 665 215 l 822 0 l 653 0 l 583 88 q 481 12 539 39 q 342 -15 422 -15 m 183 288 q 228 165 183 214 q 344 117 272 117 q 429 138 393 117 q 496 197 465 158 l 285 460 q 183 288 183 396 z "},"¶":{"ha":833,"x_min":79,"x_max":729,"o":"m 418 -139 l 418 415 l 407 415 q 222 452 294 415 q 115 551 150 489 q 79 693 79 614 q 115 836 79 774 q 223 935 150 899 q 407 972 296 972 l 729 972 l 729 -139 l 629 -139 l 629 881 l 518 881 l 518 -139 l 418 -139 z "},"§":{"ha":833,"x_min":75,"x_max":753,"o":"m 411 -322 q 183 -249 268 -322 q 94 -47 97 -176 l 250 -47 q 270 -113 251 -81 q 326 -167 289 -146 q 414 -190 363 -189 q 524 -159 479 -192 q 569 -71 569 -126 q 546 6 569 -25 q 472 61 522 36 q 339 114 421 86 q 203 174 263 139 q 109 262 143 208 q 75 397 75 315 q 97 496 75 451 q 156 571 119 540 q 106 732 106 638 q 189 918 106 847 q 418 989 272 989 q 646 916 560 989 q 735 714 732 843 l 578 714 q 558 781 578 749 q 503 835 539 814 q 414 857 467 857 q 304 826 349 858 q 260 738 260 793 q 314 631 260 669 q 490 553 368 593 q 626 493 567 528 q 719 408 685 458 q 753 281 753 357 q 731 176 753 222 q 671 97 710 131 q 722 -65 722 31 q 640 -251 722 -179 q 411 -322 557 -322 m 488 211 q 568 178 532 197 q 599 256 599 211 q 572 340 599 307 q 488 400 544 374 q 340 456 431 426 q 258 489 294 469 q 231 408 231 456 q 257 326 231 360 q 340 267 283 293 q 488 211 397 240 z "},"©":{"ha":833,"x_min":14,"x_max":819,"o":"m 417 83 q 211 136 303 83 q 67 281 119 189 q 14 486 14 372 q 67 692 14 601 q 211 836 119 783 q 417 889 303 889 q 623 836 532 889 q 767 692 714 783 q 819 486 819 601 q 767 281 819 372 q 623 136 714 189 q 417 83 532 83 m 417 146 q 590 190 514 146 q 710 312 665 235 q 754 486 754 389 q 710 661 754 585 q 590 782 665 738 q 417 826 514 826 q 244 782 321 826 q 124 661 168 738 q 79 486 79 585 q 124 312 79 389 q 244 190 168 235 q 417 146 321 146 m 415 236 q 258 301 322 236 q 194 486 194 367 q 225 622 194 567 q 306 707 256 678 q 415 736 356 736 q 553 693 503 736 q 618 578 604 650 l 550 578 q 502 647 536 622 q 415 672 468 672 q 310 627 356 672 q 264 486 264 582 q 310 344 264 390 q 415 299 356 299 q 506 325 472 299 q 551 394 540 351 l 618 394 q 549 278 601 319 q 415 236 497 236 z "},"®":{"ha":833,"x_min":14,"x_max":819,"o":"m 417 83 q 211 136 303 83 q 67 281 119 189 q 14 486 14 372 q 67 692 14 601 q 211 836 119 783 q 417 889 303 889 q 623 836 532 889 q 767 692 714 783 q 819 486 819 601 q 767 281 819 372 q 623 136 714 189 q 417 83 532 83 m 417 146 q 590 190 514 146 q 710 312 665 235 q 754 486 754 389 q 710 661 754 585 q 590 782 665 738 q 417 826 514 826 q 244 782 321 826 q 124 661 168 738 q 79 486 79 585 q 124 312 79 389 q 244 190 168 235 q 417 146 321 146 m 271 243 l 271 729 l 419 729 q 543 690 503 729 q 583 589 583 650 q 560 506 583 542 q 488 457 536 471 l 597 243 l 519 243 l 418 447 l 340 447 l 340 243 l 271 243 m 340 511 l 418 511 q 493 533 469 511 q 517 589 517 556 q 494 644 517 624 q 418 665 471 665 l 340 665 l 340 511 z "},"™":{"ha":833,"x_min":26,"x_max":813,"o":"m 438 486 l 438 972 l 543 972 l 625 764 l 707 972 l 813 972 l 813 486 l 718 486 l 718 779 l 667 638 l 583 638 l 532 781 l 532 486 l 438 486 m 157 486 l 157 881 l 26 881 l 26 972 l 390 972 l 390 881 l 260 881 l 260 486 l 157 486 z "},"°":{"ha":833,"x_min":206,"x_max":628,"o":"m 417 565 q 311 591 360 565 q 234 665 263 617 q 206 776 206 713 q 234 888 206 840 q 311 963 263 936 q 417 989 360 989 q 523 963 475 989 q 599 888 571 936 q 628 776 628 840 q 599 665 628 713 q 523 591 571 617 q 417 565 475 565 m 417 665 q 492 696 460 665 q 524 778 524 726 q 492 860 524 831 q 417 890 460 890 q 342 860 374 890 q 310 778 310 831 q 342 696 310 726 q 417 665 374 665 z "},"|":{"ha":833,"x_min":343,"x_max":490,"o":"m 343 -375 l 343 1000 l 490 1000 l 490 -375 l 343 -375 z "},"¦":{"ha":833,"x_min":343,"x_max":490,"o":"m 343 433 l 343 1000 l 490 1000 l 490 433 l 343 433 m 343 -375 l 343 192 l 490 192 l 490 -375 l 343 -375 z "},"†":{"ha":833,"x_min":151,"x_max":682,"o":"m 346 219 l 346 686 l 151 686 l 151 804 l 346 804 l 346 972 l 488 972 l 488 804 l 682 804 l 682 686 l 488 686 l 488 219 l 346 219 z "},"ℓ":{"ha":833,"x_min":82,"x_max":751,"o":"m 493 0 q 253 76 339 0 q 168 293 168 151 q 82 275 126 283 l 82 406 q 175 426 131 414 q 223 647 188 544 q 310 826 258 750 q 427 946 363 903 q 564 989 492 989 q 704 940 657 989 q 751 803 751 890 q 697 610 751 699 q 545 453 643 522 q 315 338 447 385 q 315 310 315 324 q 363 178 315 222 q 496 132 411 133 l 650 132 l 650 0 l 493 0 m 560 863 q 470 815 517 863 q 385 682 424 768 q 328 478 346 596 q 544 626 471 540 q 618 796 618 711 q 560 863 618 863 z "},"‡":{"ha":833,"x_min":151,"x_max":682,"o":"m 346 219 l 346 388 l 151 388 l 151 506 l 346 506 l 346 686 l 151 686 l 151 804 l 346 804 l 346 972 l 488 972 l 488 804 l 682 804 l 682 686 l 488 686 l 488 506 l 682 506 l 682 388 l 488 388 l 488 219 l 346 219 z "},"℮":{"ha":833,"x_min":35,"x_max":799,"o":"m 417 74 q 221 121 307 74 q 85 258 135 168 q 35 479 35 349 q 83 685 35 593 q 217 831 131 776 q 418 885 304 885 q 626 832 542 885 q 755 694 711 779 q 799 513 799 608 l 799 461 l 172 461 l 172 253 q 267 166 207 201 q 417 131 328 131 q 594 178 515 131 q 711 311 672 226 l 781 311 q 640 138 733 201 q 417 74 546 74 m 172 529 l 667 529 l 667 706 q 556 797 619 767 q 418 826 493 826 q 278 797 340 826 q 172 706 215 767 l 172 529 z "},"̈":{"ha":0,"x_min":199,"x_max":635,"o":"m 550 783 q 488 810 513 783 q 463 871 463 836 q 488 933 463 907 q 550 958 513 958 q 610 933 586 958 q 635 871 635 907 q 610 810 635 836 q 550 783 586 783 m 285 783 q 224 810 249 783 q 199 871 199 836 q 224 933 199 907 q 285 958 249 958 q 346 933 321 958 q 371 871 371 907 q 346 810 371 836 q 285 783 321 783 z "},"̇":{"ha":0,"x_min":303,"x_max":531,"o":"m 417 794 q 335 826 368 794 q 303 903 303 857 q 335 979 303 949 q 417 1010 368 1010 q 499 979 467 1010 q 531 903 531 949 q 499 826 531 857 q 417 794 467 794 z "},"̀":{"ha":0,"x_min":265,"x_max":568,"o":"m 568 742 l 265 886 l 265 1024 l 568 867 l 568 742 z "},"́":{"ha":0,"x_min":265,"x_max":568,"o":"m 265 742 l 265 867 l 568 1024 l 568 886 l 265 742 z "},"̋":{"ha":0,"x_min":193,"x_max":640,"o":"m 419 767 l 514 989 l 640 989 l 518 767 l 419 767 m 193 767 l 288 989 l 414 989 l 292 767 l 193 767 z "},"̂":{"ha":0,"x_min":221,"x_max":613,"o":"m 221 760 l 221 878 l 417 989 l 613 878 l 613 760 l 421 871 l 413 871 l 221 760 z "},"̌":{"ha":0,"x_min":221,"x_max":613,"o":"m 417 760 l 221 871 l 221 989 l 413 878 l 421 878 l 613 989 l 613 871 l 417 760 z "},"̆":{"ha":0,"x_min":211,"x_max":622,"o":"m 417 763 q 265 817 319 763 q 211 961 211 872 l 211 978 l 310 978 q 340 897 310 925 q 417 869 369 869 q 494 897 465 869 q 522 978 522 925 l 622 978 l 622 960 q 567 817 622 871 q 417 763 513 763 z "},"̊":{"ha":0,"x_min":265,"x_max":568,"o":"m 417 767 q 310 807 354 767 q 265 915 265 847 q 310 1025 265 985 q 417 1065 354 1065 q 524 1025 479 1065 q 568 915 568 985 q 524 807 568 847 q 417 767 479 767 m 417 838 q 471 858 449 838 q 493 915 493 879 q 471 973 493 951 q 417 994 449 994 q 363 973 385 994 q 340 915 340 951 q 363 858 340 879 q 417 838 385 838 z "},"̃":{"ha":0,"x_min":186,"x_max":647,"o":"m 504 796 q 438 811 465 796 q 386 842 410 826 q 338 857 363 857 q 295 841 310 857 q 276 799 281 825 l 186 799 q 228 913 190 872 q 328 954 267 954 q 394 939 367 954 q 446 908 422 924 q 494 893 469 893 q 538 910 524 893 q 557 953 553 926 l 647 953 q 607 838 644 881 q 504 796 569 796 z "},"̄":{"ha":0,"x_min":181,"x_max":653,"o":"m 181 818 l 181 926 l 653 926 l 653 818 l 181 818 z "},"̒":{"ha":0,"x_min":264,"x_max":524,"o":"m 264 783 l 397 1057 l 524 1057 l 449 783 l 264 783 z "},"̦":{"ha":0,"x_min":251,"x_max":521,"o":"m 251 -385 l 336 -94 l 521 -94 l 388 -385 l 251 -385 z "},"̧":{"ha":0,"x_min":314,"x_max":654,"o":"m 314 -362 l 314 -274 l 465 -274 q 520 -260 500 -274 q 540 -217 540 -246 q 520 -174 540 -187 q 465 -161 500 -161 l 379 -161 l 379 10 l 474 10 l 474 -78 l 481 -78 q 606 -111 558 -78 q 654 -218 654 -144 q 603 -326 654 -289 q 479 -362 553 -362 l 314 -362 z "},"̨":{"ha":0,"x_min":283,"x_max":547,"o":"m 443 -299 q 331 -260 379 -299 q 283 -142 283 -221 q 322 -36 283 -78 q 417 35 361 6 l 500 79 l 542 0 l 476 -36 q 419 -81 440 -57 q 397 -136 397 -104 q 417 -182 397 -167 q 465 -197 438 -197 q 505 -192 488 -197 q 547 -176 522 -187 l 547 -279 q 499 -294 522 -289 q 443 -299 475 -299 z "},"´":{"ha":833,"x_min":265,"x_max":568,"o":"m 265 742 l 265 867 l 568 1024 l 568 886 l 265 742 z "},"˘":{"ha":833,"x_min":211,"x_max":622,"o":"m 417 763 q 265 817 319 763 q 211 961 211 872 l 211 978 l 310 978 q 340 897 310 925 q 417 869 369 869 q 494 897 465 869 q 522 978 522 925 l 622 978 l 622 960 q 567 817 622 871 q 417 763 513 763 z "},"ˇ":{"ha":833,"x_min":221,"x_max":613,"o":"m 417 760 l 221 871 l 221 989 l 413 878 l 421 878 l 613 989 l 613 871 l 417 760 z "},"¸":{"ha":833,"x_min":314,"x_max":654,"o":"m 314 -362 l 314 -274 l 465 -274 q 520 -260 500 -274 q 540 -217 540 -246 q 520 -174 540 -187 q 465 -161 500 -161 l 379 -161 l 379 10 l 474 10 l 474 -78 l 481 -78 q 606 -111 558 -78 q 654 -218 654 -144 q 603 -326 654 -289 q 479 -362 553 -362 l 314 -362 z "},"ˆ":{"ha":833,"x_min":221,"x_max":613,"o":"m 221 760 l 221 878 l 417 989 l 613 878 l 613 760 l 421 871 l 413 871 l 221 760 z "},"¨":{"ha":833,"x_min":199,"x_max":635,"o":"m 550 783 q 488 810 513 783 q 463 871 463 836 q 488 933 463 907 q 550 958 513 958 q 610 933 586 958 q 635 871 635 907 q 610 810 635 836 q 550 783 586 783 m 285 783 q 224 810 249 783 q 199 871 199 836 q 224 933 199 907 q 285 958 249 958 q 346 933 321 958 q 371 871 371 907 q 346 810 371 836 q 285 783 321 783 z "},"˙":{"ha":833,"x_min":303,"x_max":531,"o":"m 417 794 q 335 826 368 794 q 303 903 303 857 q 335 979 303 949 q 417 1010 368 1010 q 499 979 467 1010 q 531 903 531 949 q 499 826 531 857 q 417 794 467 794 z "},"`":{"ha":833,"x_min":265,"x_max":568,"o":"m 568 742 l 265 886 l 265 1024 l 568 867 l 568 742 z "},"˝":{"ha":833,"x_min":193,"x_max":640,"o":"m 419 767 l 514 989 l 640 989 l 518 767 l 419 767 m 193 767 l 288 989 l 414 989 l 292 767 l 193 767 z "},"¯":{"ha":833,"x_min":181,"x_max":653,"o":"m 181 818 l 181 926 l 653 926 l 653 818 l 181 818 z "},"˛":{"ha":833,"x_min":283,"x_max":547,"o":"m 443 -299 q 331 -260 379 -299 q 283 -142 283 -221 q 322 -36 283 -78 q 417 35 361 6 l 500 79 l 542 0 l 476 -36 q 419 -81 440 -57 q 397 -136 397 -104 q 417 -182 397 -167 q 465 -197 438 -197 q 505 -192 488 -197 q 547 -176 522 -187 l 547 -279 q 499 -294 522 -289 q 443 -299 475 -299 z "},"˚":{"ha":833,"x_min":265,"x_max":568,"o":"m 417 767 q 310 807 354 767 q 265 915 265 847 q 310 1025 265 985 q 417 1065 354 1065 q 524 1025 479 1065 q 568 915 568 985 q 524 807 568 847 q 417 767 479 767 m 417 838 q 471 858 449 838 q 493 915 493 879 q 471 973 493 951 q 417 994 449 994 q 363 973 385 994 q 340 915 340 951 q 363 858 340 879 q 417 838 385 838 z "},"˜":{"ha":833,"x_min":186,"x_max":647,"o":"m 504 796 q 438 811 465 796 q 386 842 410 826 q 338 857 363 857 q 295 841 310 857 q 276 799 281 825 l 186 799 q 228 913 190 872 q 328 954 267 954 q 394 939 367 954 q 446 908 422 924 q 494 893 469 893 q 538 910 524 893 q 557 953 553 926 l 647 953 q 607 838 644 881 q 504 796 569 796 z "}}}
